<svg width="236" height="56" viewBox="0 0 236 56" fill="none" xmlns="http://www.w3.org/2000/svg">
<path fill-rule="evenodd" clip-rule="evenodd" d="M103.896 22.0082C100.617 22.0047 97.902 24.7126 97.8962 27.9965C97.8904 31.2759 100.58 33.9883 103.843 33.9941C107.136 33.9999 109.87 31.2967 109.873 28.0336C109.875 24.7613 107.149 22.0128 103.896 22.0082ZM103.86 37.3326C98.6659 37.3268 94.5543 33.2001 94.5601 27.9989C94.5659 22.7953 98.7088 18.6616 103.911 18.6686C109.063 18.6756 113.214 22.8567 113.208 28.0313C113.2 33.2071 109.05 37.3372 103.86 37.3326Z" fill="#1ABDCA"/>
<path fill-rule="evenodd" clip-rule="evenodd" d="M119.136 24.6013C119.136 25.3605 119.144 26.1198 119.131 26.8802C119.128 27.1387 119.228 27.2338 119.476 27.2291C119.839 27.2222 120.203 27.2373 120.566 27.2291C121.633 27.2094 122.702 27.3022 123.765 27.1816C125.024 27.039 126.061 25.7489 126.003 24.4413C125.944 23.1535 124.788 22.0233 123.495 22.0117C122.163 22.0012 120.832 22.0198 119.5 22.0024C119.191 21.9978 119.13 22.1241 119.133 22.3884C119.14 23.1257 119.136 23.8629 119.136 24.6013ZM115.781 27.9873C115.781 25.211 115.781 22.4348 115.781 19.6574C115.781 19.0569 115.915 18.9225 116.521 18.9225C118.956 18.9225 121.39 18.9039 123.826 18.9306C126.384 18.9572 128.588 20.7459 129.187 23.2311C129.739 25.5205 128.73 27.8551 126.624 29.1476C126.361 29.3087 126.093 29.4675 125.81 29.5858C125.559 29.6912 125.516 29.7979 125.65 30.0425C126.209 31.0533 126.752 32.0745 127.3 33.0934C127.857 34.1298 128.42 35.1661 128.973 36.2058C129.264 36.753 129.068 37.0671 128.442 37.0694C127.659 37.0706 126.878 37.0578 126.095 37.0752C125.738 37.0833 125.53 36.9419 125.373 36.6266C124.331 34.525 123.272 32.4327 122.232 30.3323C122.092 30.0483 121.932 29.9266 121.605 29.9382C120.901 29.9648 120.195 29.9602 119.49 29.9428C119.199 29.9347 119.114 30.0286 119.116 30.3184C119.126 32.3237 119.121 34.3291 119.119 36.3345C119.119 36.9408 118.991 37.0694 118.386 37.0706C117.737 37.0718 117.085 37.0717 116.436 37.0694C115.941 37.0671 115.783 36.9118 115.783 36.4157C115.78 33.6058 115.781 30.7959 115.781 27.9873Z" fill="#1ABDCA"/>
<path fill-rule="evenodd" clip-rule="evenodd" d="M91.9856 27.9664C91.9856 30.7542 91.9868 33.5409 91.9856 36.3287C91.9856 36.9303 91.8465 37.0694 91.2484 37.0694C90.5876 37.0706 89.9257 37.0717 89.2662 37.0683C88.8141 37.0648 88.6541 36.9048 88.653 36.447C88.6506 34.277 88.6518 32.107 88.6507 29.9358C88.6507 29.413 88.646 29.4107 88.1348 29.4107C85.6124 29.4096 83.0901 29.4165 80.5665 29.4026C80.2373 29.4015 80.1365 29.4849 80.1388 29.8211C80.1527 31.9911 80.1458 34.161 80.1434 36.331C80.1434 36.9384 80.0136 37.0671 79.4074 37.0683C78.735 37.0683 78.0639 37.0706 77.3904 37.066C76.943 37.0636 76.7737 36.8932 76.7737 36.4423C76.7714 30.8122 76.7714 25.1832 76.7737 19.5542C76.7737 19.0905 76.9464 18.9236 77.4159 18.9213C78.1102 18.9178 78.8034 18.9178 79.4978 18.9213C79.9881 18.9236 80.1411 19.0778 80.1411 19.5832C80.1446 21.6546 80.1423 23.7249 80.1446 25.7964C80.1446 26.2925 80.1481 26.296 80.6512 26.296C83.1515 26.2972 85.653 26.2972 88.1522 26.296C88.646 26.2948 88.6495 26.2914 88.6507 25.808C88.6518 23.7586 88.6506 21.7103 88.653 19.6609C88.653 19.0256 88.7585 18.9236 89.4088 18.9213C90.0254 18.919 90.6421 18.919 91.2588 18.9213C91.843 18.9225 91.9868 19.0639 91.9868 19.6377C91.9868 22.4151 91.9856 25.1913 91.9856 27.9664Z" fill="#1ABDCA"/>
<path fill-rule="evenodd" clip-rule="evenodd" d="M172.731 24.8262C173.139 24.1654 173.528 23.5406 173.912 22.9147C174.615 21.7706 175.321 20.6276 176.013 19.4777C176.186 19.1902 176.402 19.0662 176.739 19.072C177.62 19.0871 178.501 19.0766 179.382 19.0766C179.62 19.0755 179.858 19.0801 179.988 19.3224C180.11 19.5519 179.987 19.7455 179.865 19.9356C178.247 22.4545 176.636 24.978 175.005 27.4888C174.803 27.8006 174.795 28.0185 174.997 28.3362C176.673 30.9744 178.331 33.6243 179.993 36.2719C180.057 36.3739 180.127 36.4759 180.172 36.5872C180.298 36.9025 180.137 37.1992 179.802 37.205C178.821 37.2224 177.841 37.2166 176.861 37.2074C176.627 37.205 176.505 37.0196 176.391 36.8364C175.332 35.1359 174.268 33.4365 173.209 31.7372C172.724 30.9582 172.727 30.9571 172.254 31.7268C171.216 33.4145 170.171 35.0976 169.142 36.79C168.954 37.0984 168.724 37.2317 168.363 37.2236C167.548 37.205 166.732 37.2155 165.917 37.2189C165.678 37.2201 165.443 37.2131 165.311 36.9744C165.176 36.7298 165.319 36.5315 165.443 36.3333C167.124 33.6591 168.8 30.9802 170.492 28.3141C170.679 28.0209 170.681 27.8203 170.492 27.5271C168.868 25.0116 167.263 22.4846 165.651 19.9611C165.525 19.764 165.385 19.5635 165.515 19.3212C165.653 19.0639 165.909 19.0778 166.155 19.0778C167.024 19.0778 167.894 19.0882 168.765 19.0732C169.105 19.0662 169.318 19.1995 169.488 19.4847C170.42 21.0438 171.36 22.5971 172.299 24.1515C172.429 24.3637 172.567 24.5723 172.731 24.8262Z" fill="#ED332B"/>
<path fill-rule="evenodd" clip-rule="evenodd" d="M182.077 28.138C182.077 25.3513 182.076 22.5623 182.077 19.7745C182.077 19.2088 182.211 19.0766 182.779 19.0766C186.14 19.0755 189.5 19.0755 192.861 19.0766C193.453 19.0766 193.576 19.1983 193.577 19.7907C193.579 20.3309 193.579 20.871 193.577 21.4101C193.576 22.0522 193.481 22.145 192.824 22.145C190.499 22.1461 188.174 22.145 185.85 22.1473C185.419 22.1473 185.414 22.1519 185.413 22.5774C185.411 23.7226 185.411 24.8691 185.413 26.0143C185.414 26.4502 185.417 26.4525 185.871 26.4525C187.788 26.4548 189.705 26.4525 191.623 26.4548C192.167 26.456 192.309 26.5974 192.312 27.1364C192.315 27.7427 192.316 28.3478 192.311 28.954C192.308 29.3957 192.158 29.5464 191.712 29.5475C189.762 29.5498 187.811 29.5487 185.861 29.5498C185.419 29.5498 185.414 29.5533 185.413 30.0008C185.411 31.2353 185.411 32.4698 185.412 33.7032C185.413 34.1332 185.415 34.1379 185.838 34.1379C188.175 34.1402 190.51 34.139 192.847 34.1402C193.458 34.1402 193.577 34.2608 193.578 34.8728C193.579 35.4675 193.583 36.0621 193.576 36.6568C193.571 37.0579 193.415 37.2132 193.01 37.2132C189.56 37.2167 186.113 37.2167 182.663 37.2132C182.237 37.2132 182.079 37.0474 182.078 36.6C182.076 33.7797 182.077 30.9594 182.077 28.138Z" fill="#ED332B"/>
<path fill-rule="evenodd" clip-rule="evenodd" d="M149.153 24.8679C149.154 24.8679 149.156 24.8679 149.158 24.8679C149.158 25.6387 149.158 26.4084 149.158 27.177C149.158 27.3578 149.187 27.4923 149.424 27.4923C150.479 27.49 151.539 27.5688 152.59 27.4517C153.888 27.3068 154.912 26.0943 154.896 24.7694C154.882 23.4977 153.887 22.4093 152.578 22.2667C151.559 22.1566 150.534 22.2412 149.512 22.2226C149.241 22.218 149.148 22.3281 149.152 22.5889C149.159 23.3505 149.153 24.1086 149.153 24.8679ZM145.824 28.1008C145.824 25.3362 145.823 22.5716 145.824 19.8069C145.824 19.2007 145.951 19.0766 146.564 19.0766C148.524 19.0755 150.485 19.0662 152.446 19.0778C155.789 19.0975 158.406 21.9155 158.185 25.2435C157.987 28.2457 155.447 30.5931 152.366 30.6197C151.485 30.6267 150.604 30.6151 149.723 30.6232C149.122 30.629 149.165 30.5398 149.162 31.1993C149.158 32.9509 149.16 34.7024 149.159 36.4527C149.159 37.1019 149.044 37.2143 148.384 37.2155C147.746 37.2166 147.107 37.2166 146.467 37.2143C145.969 37.212 145.825 37.0683 145.825 36.5594C145.823 33.7403 145.824 30.9211 145.824 28.1008Z" fill="#ED332B"/>
<path fill-rule="evenodd" clip-rule="evenodd" d="M68.2895 18.6628C70.0503 18.686 71.7555 19.2563 73.2972 20.3285C73.689 20.6021 73.7493 20.9278 73.4931 21.3208C73.1986 21.7729 72.9007 22.2238 72.597 22.6678C72.2782 23.1338 71.9699 23.1906 71.4772 22.8927C70.58 22.3502 69.6596 21.8494 68.6175 21.6477C67.9869 21.526 67.3679 21.5828 66.7883 21.89C65.6732 22.4811 65.4228 23.7771 66.2435 24.7392C66.771 25.3582 67.4618 25.7442 68.1898 26.0688C69.2551 26.5429 70.3505 26.9509 71.3474 27.5688C72.495 28.2817 73.4641 29.158 73.9486 30.4598C74.8551 32.8952 73.7052 35.5509 71.2721 36.6892C69.9749 37.2955 68.6094 37.4299 67.2091 37.27C65.5805 37.0845 64.0886 36.5397 62.8031 35.4929C62.2687 35.0583 62.2478 34.9423 62.6002 34.3338C62.8483 33.9049 63.0929 33.4736 63.3444 33.0471C63.5994 32.6147 63.9182 32.5382 64.3378 32.8164C65.0913 33.3172 65.868 33.7739 66.7246 34.0811C67.4827 34.3523 68.2489 34.5065 69.0476 34.2526C70.6426 33.7461 71.0854 32.0258 69.9286 30.8145C69.3455 30.2059 68.6199 29.8118 67.8594 29.4838C66.7478 29.0039 65.6222 28.5541 64.6415 27.8203C63.2621 26.7887 62.4089 25.4707 62.4032 23.6913C62.3985 21.6106 63.6203 19.851 65.5805 19.116C66.4151 18.8019 67.2798 18.6779 68.2895 18.6628Z" fill="#1ABDCA"/>
<path fill-rule="evenodd" clip-rule="evenodd" d="M134.733 29.413C134.733 27.0889 134.733 24.7647 134.732 22.4394C134.732 22.0117 134.728 22.0094 134.294 22.0094C133.17 22.007 132.048 22.0094 130.923 22.0059C130.409 22.0047 130.259 21.8506 130.258 21.3324C130.256 20.7261 130.254 20.1211 130.259 19.5148C130.263 19.1033 130.433 18.9225 130.839 18.9225C134.55 18.9201 138.263 18.9201 141.975 18.9225C142.384 18.9225 142.552 19.0929 142.558 19.5113C142.567 20.15 142.567 20.7887 142.558 21.4286C142.552 21.8401 142.378 22.0024 141.963 22.0047C140.828 22.0094 139.694 22.0024 138.559 22.0094C138.037 22.0128 138.094 21.9549 138.094 22.4661C138.089 27.0147 138.09 31.5656 138.09 36.1143C138.09 37.0115 138.034 37.0683 137.139 37.0671C136.544 37.0671 135.949 37.0706 135.355 37.066C134.904 37.0625 134.736 36.899 134.736 36.4493C134.733 34.1031 134.735 31.7569 134.735 29.4107H134.733V29.413Z" fill="#1ABDCA"/>
<path fill-rule="evenodd" clip-rule="evenodd" d="M196.506 28.1345C196.506 25.3582 196.505 22.5808 196.506 19.8046C196.506 19.2146 196.639 19.0778 197.219 19.0766C197.858 19.0743 198.498 19.0743 199.137 19.0766C199.698 19.0789 199.845 19.2227 199.845 19.7803C199.846 24.3857 199.843 28.9923 199.849 33.5989C199.851 34.1924 199.725 34.1356 200.397 34.1367C202.348 34.1448 204.297 34.1402 206.248 34.1414C206.818 34.1414 206.958 34.2758 206.96 34.8357C206.963 35.4199 206.965 36.0042 206.959 36.5884C206.954 37.066 206.8 37.2155 206.317 37.2155C203.264 37.2167 200.211 37.2167 197.159 37.2155C196.662 37.2155 196.506 37.0602 196.506 36.5652C196.506 33.7542 196.506 30.9443 196.506 28.1345Z" fill="#ED332B"/>
<path fill-rule="evenodd" clip-rule="evenodd" d="M163.44 28.1611C163.441 30.9362 163.441 33.7113 163.44 36.4864C163.44 37.0891 163.311 37.2143 162.699 37.2166C162.06 37.2178 161.421 37.2178 160.783 37.2155C160.226 37.2143 160.078 37.066 160.078 36.5119C160.078 31.3037 160.078 26.0943 160.078 20.8861C160.078 20.4897 160.076 20.0932 160.079 19.6968C160.085 19.2563 160.261 19.0813 160.707 19.0778C161.391 19.0732 162.073 19.0743 162.756 19.0766C163.291 19.079 163.438 19.2262 163.44 19.7687C163.441 22.5669 163.44 25.3629 163.44 28.1611Z" fill="#ED332B"/>
<path d="M38.0806 46.9063C43.4813 46.9063 47.8594 44.7142 47.8594 42.01C47.8594 39.3058 43.4813 37.1136 38.0806 37.1136C32.6799 37.1136 28.3018 39.3058 28.3018 42.01C28.3018 44.7142 32.6799 46.9063 38.0806 46.9063Z" fill="#1ABDCA"/>
<path d="M47.2066 38.6506C47.2066 38.6402 47.2078 38.6286 47.2078 38.6182C47.2078 36.0935 43.1205 34.0464 38.0792 34.0464C33.038 34.0464 28.9507 36.0935 28.9507 38.6182C28.9507 38.6286 28.9518 38.6402 28.9518 38.6506C28.9518 38.6611 28.9507 38.6727 28.9507 38.6831C28.9507 38.6935 28.9518 38.7051 28.9518 38.7156C28.9518 38.726 28.9507 38.7376 28.9507 38.748C28.9507 38.7585 28.9518 38.77 28.9518 38.7805C28.9518 38.7909 28.9507 38.8025 28.9507 38.8129C28.9507 38.8234 28.9518 38.835 28.9518 38.8454C28.9518 38.8558 28.9507 38.8674 28.9507 38.8778C28.9507 38.8883 28.9518 38.8999 28.9518 38.9103C28.9518 38.9207 28.9507 38.9323 28.9507 38.9428C28.9507 38.9532 28.9518 38.9648 28.9518 38.9752C28.9518 38.9857 28.9507 38.9972 28.9507 39.0077C28.9507 39.0181 28.9518 39.0297 28.9518 39.0401C28.9518 39.0506 28.9507 39.0622 28.9507 39.0726C28.9507 39.083 28.9518 39.0946 28.9518 39.105C28.9518 39.1155 28.9507 39.1271 28.9507 39.1375C28.9507 39.1479 28.9518 39.1595 28.9518 39.17C28.9518 39.1804 28.9507 39.192 28.9507 39.2024C28.9507 39.2129 28.9518 39.2244 28.9518 39.2349C28.9518 39.2453 28.9507 39.2569 28.9507 39.2673C28.9507 39.2778 28.9518 39.2894 28.9518 39.2998C28.9518 39.3102 28.9507 39.3218 28.9507 39.3322C28.9507 39.3427 28.9518 39.3543 28.9518 39.3647C28.9518 39.3751 28.9507 39.3867 28.9507 39.3972C28.9507 39.4076 28.9518 39.4192 28.9518 39.4296C28.9518 39.44 28.9507 39.4516 28.9507 39.4621C28.9507 39.4725 28.9518 39.4841 28.9518 39.4945C28.9518 39.505 28.9507 39.5166 28.9507 39.527C28.9507 39.5374 28.9518 39.549 28.9518 39.5594C28.9518 39.5699 28.9507 39.5815 28.9507 39.5919C28.9507 39.6023 28.9518 39.6139 28.9518 39.6244C28.9518 39.6348 28.9507 39.6464 28.9507 39.6568C28.9507 39.6672 28.9518 39.6788 28.9518 39.6893C28.9518 39.6997 28.9507 39.7113 28.9507 39.7217C28.9507 39.7322 28.9518 39.7438 28.9518 39.7542C28.9518 39.7646 28.9507 39.7762 28.9507 39.7866C28.9507 39.7971 28.9518 39.8087 28.9518 39.8191C28.9518 39.8295 28.9507 39.8411 28.9507 39.8516C28.9507 39.862 28.9518 39.8736 28.9518 39.884C28.9518 39.8944 28.9507 39.906 28.9507 39.9165C28.9507 39.9269 28.9518 39.9385 28.9518 39.9489C28.9518 39.9594 28.9507 39.971 28.9507 39.9814C28.9507 39.9918 28.9518 40.0034 28.9518 40.0138C28.9518 40.0243 28.9507 40.0359 28.9507 40.0463C28.9507 40.0567 28.9518 40.0683 28.9518 40.0788C28.9518 40.0892 28.9507 40.1008 28.9507 40.1112C28.9507 40.1216 28.9518 40.1332 28.9518 40.1437C28.9518 40.1541 28.9507 40.1657 28.9507 40.1761C28.9507 40.1866 28.9518 40.1982 28.9518 40.2086C28.9518 40.219 28.9507 40.2306 28.9507 40.241C28.9507 40.2515 28.9518 40.2631 28.9518 40.2735C28.9518 40.2839 28.9507 40.2955 28.9507 40.306C28.9507 40.3164 28.9518 40.328 28.9518 40.3384C28.9518 40.3488 28.9507 40.3604 28.9507 40.3709C28.9507 40.3813 28.9518 40.3929 28.9518 40.4033C28.9518 40.4138 28.9507 40.4254 28.9507 40.4358C28.9507 40.4462 28.9518 40.4578 28.9518 40.4682C28.9518 40.4787 28.9507 40.4903 28.9507 40.5007C28.9507 40.5111 28.9518 40.5227 28.9518 40.5332C28.9518 40.5436 28.9507 40.5552 28.9507 40.5656C28.9507 40.576 28.9518 40.5876 28.9518 40.5981C28.9518 40.6085 28.9507 40.6201 28.9507 40.6305C28.9507 40.641 28.9518 40.6526 28.9518 40.663C28.9518 40.6734 28.9507 40.685 28.9507 40.6954C28.9507 40.7059 28.9518 40.7175 28.9518 40.7279C28.9518 40.7383 28.9507 40.7499 28.9507 40.7604C28.9507 40.7708 28.9518 40.7824 28.9518 40.7928C28.9518 40.8032 28.9507 40.8148 28.9507 40.8253C28.9507 40.8357 28.9518 40.8473 28.9518 40.8577C28.9518 40.8682 28.9507 40.8798 28.9507 40.8902C28.9507 40.9006 28.9518 40.9122 28.9518 40.9226C28.9518 40.9331 28.9507 40.9447 28.9507 40.9551C28.9507 40.9655 28.9518 40.9771 28.9518 40.9876C28.9518 40.998 28.9507 41.0096 28.9507 41.02C28.9507 41.0304 28.9518 41.042 28.9518 41.0525C28.9518 41.0629 28.9507 41.0745 28.9507 41.0849C28.9507 41.0954 28.9518 41.1069 28.9518 41.1174C28.9518 41.1278 28.9507 41.1394 28.9507 41.1498C28.9507 41.1603 28.9518 41.1719 28.9518 41.1823C28.9518 41.1927 28.9507 41.2043 28.9507 41.2148C28.9507 41.2252 28.9518 41.2368 28.9518 41.2472C28.9518 41.2576 28.9507 41.2692 28.9507 41.2797C28.9507 43.8044 33.038 45.8515 38.0792 45.8515C43.1205 45.8515 47.2078 43.8044 47.2078 41.2797C47.2078 41.2692 47.2066 41.2576 47.2066 41.2472C47.2066 41.2368 47.2078 41.2252 47.2078 41.2148C47.2078 41.2043 47.2066 41.1927 47.2066 41.1823C47.2066 41.1719 47.2078 41.1603 47.2078 41.1498C47.2078 41.1394 47.2066 41.1278 47.2066 41.1174C47.2066 41.1069 47.2078 41.0954 47.2078 41.0849C47.2078 41.0745 47.2066 41.0629 47.2066 41.0525C47.2066 41.042 47.2078 41.0304 47.2078 41.02C47.2078 41.0096 47.2066 40.998 47.2066 40.9876C47.2066 40.9771 47.2078 40.9655 47.2078 40.9551C47.2078 40.9447 47.2066 40.9331 47.2066 40.9226C47.2066 40.9122 47.2078 40.9006 47.2078 40.8902C47.2078 40.8798 47.2066 40.8682 47.2066 40.8577C47.2066 40.8473 47.2078 40.8357 47.2078 40.8253C47.2078 40.8148 47.2066 40.8032 47.2066 40.7928C47.2066 40.7824 47.2078 40.7708 47.2078 40.7604C47.2078 40.7499 47.2066 40.7383 47.2066 40.7279C47.2066 40.7175 47.2078 40.7059 47.2078 40.6954C47.2078 40.685 47.2066 40.6734 47.2066 40.663C47.2066 40.6526 47.2078 40.641 47.2078 40.6305C47.2078 40.6201 47.2066 40.6085 47.2066 40.5981C47.2066 40.5876 47.2078 40.576 47.2078 40.5656C47.2078 40.5552 47.2066 40.5436 47.2066 40.5332C47.2066 40.5227 47.2078 40.5111 47.2078 40.5007C47.2078 40.4903 47.2066 40.4787 47.2066 40.4682C47.2066 40.4578 47.2078 40.4462 47.2078 40.4358C47.2078 40.4254 47.2066 40.4138 47.2066 40.4033C47.2066 40.3929 47.2078 40.3813 47.2078 40.3709C47.2078 40.3604 47.2066 40.3488 47.2066 40.3384C47.2066 40.328 47.2078 40.3164 47.2078 40.306C47.2078 40.2955 47.2066 40.2839 47.2066 40.2735C47.2066 40.2631 47.2078 40.2515 47.2078 40.241C47.2078 40.2306 47.2066 40.219 47.2066 40.2086C47.2066 40.1982 47.2078 40.1866 47.2078 40.1761C47.2078 40.1657 47.2066 40.1541 47.2066 40.1437C47.2066 40.1332 47.2078 40.1216 47.2078 40.1112C47.2078 40.1008 47.2066 40.0892 47.2066 40.0788C47.2066 40.0683 47.2078 40.0567 47.2078 40.0463C47.2078 40.0359 47.2066 40.0243 47.2066 40.0138C47.2066 40.0034 47.2078 39.9918 47.2078 39.9814C47.2078 39.971 47.2066 39.9594 47.2066 39.9489C47.2066 39.9385 47.2078 39.9269 47.2078 39.9165C47.2078 39.906 47.2066 39.8944 47.2066 39.884C47.2066 39.8736 47.2078 39.862 47.2078 39.8516C47.2078 39.8411 47.2066 39.8295 47.2066 39.8191C47.2066 39.8087 47.2078 39.7971 47.2078 39.7866C47.2078 39.7762 47.2066 39.7646 47.2066 39.7542C47.2066 39.7438 47.2078 39.7322 47.2078 39.7217C47.2078 39.7113 47.2066 39.6997 47.2066 39.6893C47.2066 39.6788 47.2078 39.6672 47.2078 39.6568C47.2078 39.6464 47.2066 39.6348 47.2066 39.6244C47.2066 39.6139 47.2078 39.6023 47.2078 39.5919C47.2078 39.5815 47.2066 39.5699 47.2066 39.5594C47.2066 39.549 47.2078 39.5374 47.2078 39.527C47.2078 39.5166 47.2066 39.505 47.2066 39.4945C47.2066 39.4841 47.2078 39.4725 47.2078 39.4621C47.2078 39.4516 47.2066 39.44 47.2066 39.4296C47.2066 39.4192 47.2078 39.4076 47.2078 39.3972C47.2078 39.3867 47.2066 39.3751 47.2066 39.3647C47.2066 39.3543 47.2078 39.3427 47.2078 39.3322C47.2078 39.3218 47.2066 39.3102 47.2066 39.2998C47.2066 39.2894 47.2078 39.2778 47.2078 39.2673C47.2078 39.2569 47.2066 39.2453 47.2066 39.2349C47.2066 39.2244 47.2078 39.2129 47.2078 39.2024C47.2078 39.192 47.2066 39.1804 47.2066 39.17C47.2066 39.1595 47.2078 39.1479 47.2078 39.1375C47.2078 39.1271 47.2066 39.1155 47.2066 39.105C47.2066 39.0946 47.2078 39.083 47.2078 39.0726C47.2078 39.0622 47.2066 39.0506 47.2066 39.0401C47.2066 39.0297 47.2078 39.0181 47.2078 39.0077C47.2078 38.9972 47.2066 38.9857 47.2066 38.9752C47.2066 38.9648 47.2078 38.9532 47.2078 38.9428C47.2078 38.9323 47.2066 38.9207 47.2066 38.9103C47.2066 38.8999 47.2078 38.8883 47.2078 38.8778C47.2078 38.8674 47.2066 38.8558 47.2066 38.8454C47.2066 38.835 47.2078 38.8234 47.2078 38.8129C47.2078 38.8025 47.2066 38.7909 47.2066 38.7805C47.2066 38.77 47.2078 38.7585 47.2078 38.748C47.2078 38.7376 47.2066 38.726 47.2066 38.7156C47.2066 38.7051 47.2078 38.6935 47.2078 38.6831C47.2078 38.6727 47.2078 38.6622 47.2066 38.6506Z" fill="#C22828"/>
<path d="M38.0807 43.19C43.1223 43.19 47.2093 41.1431 47.2093 38.6182C47.2093 36.0933 43.1223 34.0464 38.0807 34.0464C33.0391 34.0464 28.9521 36.0933 28.9521 38.6182C28.9521 41.1431 33.0391 43.19 38.0807 43.19Z" fill="#ED332B"/>
<path d="M38.0807 34.0464C33.0394 34.0464 28.9521 36.0935 28.9521 38.6182C28.9521 39.1734 29.1504 39.7055 29.512 40.1982L46.654 37.0452C45.3731 35.296 42.0184 34.0464 38.0807 34.0464Z" fill="#D7292A"/>
<path d="M40.5438 35.2009C40.6841 33.687 35.2371 33.665 35.615 35.3505C35.6104 35.5742 35.6104 35.7991 35.615 36.0239C35.6069 36.7588 35.6185 37.4949 35.6104 38.2298C35.586 39.6985 40.8104 39.7217 40.5473 38.0803C40.5392 37.8438 40.5519 37.6062 40.5427 37.3697C40.5485 36.6464 40.5485 35.9231 40.5438 35.2009Z" fill="#D9D9D9"/>
<path d="M40.5486 36.7334C40.5486 36.7206 40.5474 36.7079 40.5463 36.6963C40.5474 36.6835 40.5486 36.6719 40.5486 36.6592C40.5486 36.6464 40.5474 36.6337 40.5463 36.6221C40.5474 36.6093 40.5486 36.5977 40.5486 36.585C40.5486 36.5722 40.5474 36.5595 40.5463 36.5479C40.5474 36.5352 40.5486 36.5236 40.5486 36.5108C40.5486 36.4981 40.5474 36.4853 40.5463 36.4737C40.5474 36.461 40.5486 36.4494 40.5486 36.4366C40.5486 36.4239 40.5474 36.4111 40.5463 36.3995C40.5474 36.3868 40.5486 36.3752 40.5486 36.3624C40.5486 36.3497 40.5474 36.3369 40.5463 36.3253C40.5474 36.3126 40.5486 36.301 40.5486 36.2882C40.5486 36.2755 40.5474 36.2627 40.5463 36.2512C40.5474 36.2384 40.5486 36.2268 40.5486 36.2141C40.5486 36.2013 40.5474 36.1886 40.5463 36.177C40.5474 36.1642 40.5486 36.1526 40.5486 36.1399C40.5486 36.1271 40.5474 36.1144 40.5463 36.1028C40.5474 36.09 40.5486 36.0784 40.5486 36.0657C40.5486 36.0529 40.5474 36.0402 40.5463 36.0286C40.5474 36.0158 40.5486 36.0042 40.5486 35.9915C40.5486 35.9787 40.5474 35.966 40.5463 35.9544C40.5474 35.9417 40.5486 35.9301 40.5486 35.9173C40.5486 35.9046 40.5474 35.8918 40.5463 35.8802C40.5474 35.8675 40.5486 35.8559 40.5486 35.8431C40.5486 35.8304 40.5474 35.8176 40.5463 35.806C40.5474 35.7933 40.5486 35.7817 40.5486 35.7689C40.5486 35.7562 40.5474 35.7434 40.5463 35.7318C40.5474 35.7191 40.5486 35.7075 40.5486 35.6947C40.5486 35.682 40.5474 35.6692 40.5463 35.6577C40.5474 35.6449 40.5486 35.6333 40.5486 35.6206C40.5486 35.6078 40.5474 35.5951 40.5463 35.5835C40.5474 35.5707 40.5486 35.5591 40.5486 35.5464C40.5486 35.5336 40.5474 35.5209 40.5463 35.5093C40.5474 35.4965 40.5486 35.4849 40.5486 35.4722C40.5486 35.4594 40.5474 35.4467 40.5463 35.4351C40.5474 35.4223 40.5486 35.4107 40.5486 35.398C40.5486 35.3852 40.5474 35.3725 40.5463 35.3609C40.5474 35.3482 40.5486 35.3366 40.5486 35.3238C40.5486 35.3111 40.5474 35.2983 40.5463 35.2867C40.5474 35.274 40.5486 35.2624 40.5486 35.2496C40.5486 35.2369 40.5474 35.2241 40.5463 35.2125C40.5474 35.1998 40.5486 35.1882 40.5486 35.1754C40.5486 34.5587 39.4439 34.0591 38.0807 34.0591C36.7175 34.0591 35.6128 34.5587 35.6128 35.1754C35.6128 35.1882 35.614 35.2009 35.6151 35.2125C35.614 35.2253 35.6128 35.2369 35.6128 35.2496C35.6128 35.2624 35.614 35.2751 35.6151 35.2867C35.614 35.2995 35.6128 35.3111 35.6128 35.3238C35.6128 35.3366 35.614 35.3493 35.6151 35.3609C35.614 35.3737 35.6128 35.3852 35.6128 35.398C35.6128 35.4107 35.614 35.4235 35.6151 35.4351C35.614 35.4478 35.6128 35.4594 35.6128 35.4722C35.6128 35.4849 35.614 35.4977 35.6151 35.5093C35.614 35.522 35.6128 35.5336 35.6128 35.5464C35.6128 35.5591 35.614 35.5719 35.6151 35.5835C35.614 35.5962 35.6128 35.6078 35.6128 35.6206C35.6128 35.6333 35.614 35.6461 35.6151 35.6577C35.614 35.6704 35.6128 35.682 35.6128 35.6947C35.6128 35.7075 35.614 35.7202 35.6151 35.7318C35.614 35.7446 35.6128 35.7562 35.6128 35.7689C35.6128 35.7817 35.614 35.7944 35.6151 35.806C35.614 35.8188 35.6128 35.8304 35.6128 35.8431C35.6128 35.8559 35.614 35.8686 35.6151 35.8802C35.614 35.893 35.6128 35.9046 35.6128 35.9173C35.6128 35.9301 35.614 35.9428 35.6151 35.9544C35.614 35.9672 35.6128 35.9787 35.6128 35.9915C35.6128 36.0042 35.614 36.017 35.6151 36.0286C35.614 36.0413 35.6128 36.0529 35.6128 36.0657C35.6128 36.0784 35.614 36.0912 35.6151 36.1028C35.614 36.1155 35.6128 36.1271 35.6128 36.1399C35.6128 36.1526 35.614 36.1654 35.6151 36.177C35.614 36.1897 35.6128 36.2013 35.6128 36.2141C35.6128 36.2268 35.614 36.2396 35.6151 36.2512C35.614 36.2639 35.6128 36.2755 35.6128 36.2882C35.6128 36.301 35.614 36.3137 35.6151 36.3253C35.614 36.3381 35.6128 36.3497 35.6128 36.3624C35.6128 36.3752 35.614 36.3879 35.6151 36.3995C35.614 36.4123 35.6128 36.4239 35.6128 36.4366C35.6128 36.4494 35.614 36.4621 35.6151 36.4737C35.614 36.4865 35.6128 36.4981 35.6128 36.5108C35.6128 36.5236 35.614 36.5363 35.6151 36.5479C35.614 36.5607 35.6128 36.5722 35.6128 36.585C35.6128 36.5977 35.614 36.6105 35.6151 36.6221C35.614 36.6348 35.6128 36.6464 35.6128 36.6592C35.6128 36.6719 35.614 36.6847 35.6151 36.6963C35.614 36.709 35.6128 36.7206 35.6128 36.7334C35.6128 36.7461 35.614 36.7589 35.6151 36.7705C35.614 36.7832 35.6128 36.7948 35.6128 36.8076C35.6128 36.8203 35.614 36.8331 35.6151 36.8447C35.614 36.8574 35.6128 36.869 35.6128 36.8817C35.6128 36.8945 35.614 36.9072 35.6151 36.9188C35.614 36.9316 35.6128 36.9432 35.6128 36.9559C35.6128 36.9687 35.614 36.9814 35.6151 36.993C35.614 37.0058 35.6128 37.0174 35.6128 37.0301C35.6128 37.0429 35.614 37.0556 35.6151 37.0672C35.614 37.08 35.6128 37.0916 35.6128 37.1043C35.6128 37.1171 35.614 37.1298 35.6151 37.1414C35.614 37.1542 35.6128 37.1657 35.6128 37.1785C35.6128 37.1913 35.614 37.204 35.6151 37.2156C35.614 37.2283 35.6128 37.2399 35.6128 37.2527C35.6128 37.2654 35.614 37.2782 35.6151 37.2898C35.614 37.3025 35.6128 37.3141 35.6128 37.3269C35.6128 37.3396 35.614 37.3524 35.6151 37.364C35.614 37.3767 35.6128 37.3883 35.6128 37.4011C35.6128 37.4138 35.614 37.4266 35.6151 37.4382C35.614 37.4509 35.6128 37.4625 35.6128 37.4752C35.6128 37.488 35.614 37.5007 35.6151 37.5123C35.614 37.5251 35.6128 37.5367 35.6128 37.5494C35.6128 37.5622 35.614 37.5749 35.6151 37.5865C35.614 37.5993 35.6128 37.6109 35.6128 37.6236C35.6128 37.6364 35.614 37.6491 35.6151 37.6607C35.614 37.6735 35.6128 37.6851 35.6128 37.6978C35.6128 37.7106 35.614 37.7233 35.6151 37.7349C35.614 37.7477 35.6128 37.7592 35.6128 37.772C35.6128 37.7848 35.614 37.7975 35.6151 37.8091C35.614 37.8218 35.6128 37.8334 35.6128 37.8462C35.6128 37.8589 35.614 37.8717 35.6151 37.8833C35.614 37.896 35.6128 37.9076 35.6128 37.9204C35.6128 37.9331 35.614 37.9459 35.6151 37.9575C35.614 37.9702 35.6128 37.9818 35.6128 37.9946C35.6128 38.0073 35.614 38.0201 35.6151 38.0317C35.614 38.0444 35.6128 38.056 35.6128 38.0687C35.6128 38.0815 35.614 38.0943 35.6151 38.1058C35.614 38.1186 35.6128 38.1302 35.6128 38.1429C35.6128 38.1557 35.614 38.1684 35.6151 38.18C35.614 38.1928 35.6128 38.2044 35.6128 38.2171C35.6128 38.4907 35.8307 38.7411 36.1924 38.9347C36.1924 38.9277 36.2028 38.4629 36.6607 37.9586C37.122 37.4497 38.156 36.796 40.5497 36.796C40.5497 36.7832 40.5486 36.7705 40.5474 36.7589C40.5474 36.7589 40.5486 36.7461 40.5486 36.7334Z" fill="#D9D9D9"/>
<path d="M41.7539 9.68158V9.90878C41.7539 10.0989 41.8965 10.26 42.0854 10.2832L47.0073 10.8941C47.2287 10.9219 47.4246 10.7527 47.4316 10.5301L47.449 9.89951C47.4547 9.69318 47.2936 9.52046 47.0873 9.51234L42.1469 9.30601C41.9324 9.29558 41.7539 9.46714 41.7539 9.68158Z" fill="#ED332B"/>
<path d="M37.5367 9.80445L31.167 9.27471C30.9526 9.25732 30.7671 9.42076 30.759 9.63521L30.7196 10.5973C30.7103 10.8129 30.883 10.9915 31.0986 10.9903L37.4857 10.9648C37.6851 10.9636 37.8497 10.8083 37.8613 10.6089L37.8845 10.2032C37.8949 9.99804 37.7408 9.82068 37.5367 9.80445Z" fill="#ED332B"/>
<path d="M49.9703 36.4749H28.9393C27.2712 36.4749 25.9185 35.1221 25.9185 33.4541V15.1993C25.9185 13.5312 27.2712 12.1785 28.9393 12.1785H49.9703C51.6383 12.1785 52.9911 13.5312 52.9911 15.1993V33.4541C52.9911 35.1221 51.6383 36.4749 49.9703 36.4749Z" fill="#92D5E3"/>
<path d="M48.2559 13.4802C48.694 13.3504 49.1786 13.3666 49.633 13.4976C50.0897 13.6286 50.5174 13.8766 50.8675 14.2116C50.951 14.2986 51.0333 14.3878 51.1144 14.4771C51.1886 14.5721 51.2593 14.6707 51.3277 14.7704C51.3857 14.877 51.4494 14.9802 51.4993 15.0891C51.5445 15.2016 51.5908 15.3129 51.6256 15.4265C51.7589 15.8867 51.7728 16.3828 51.5989 16.8221H51.505C51.454 16.7155 51.4123 16.6146 51.3752 16.5149C51.3312 16.4164 51.286 16.3213 51.2489 16.2263C51.2037 16.1336 51.1561 16.0443 51.1167 15.9539C51.0692 15.8669 51.0194 15.7812 50.9765 15.6954C50.9544 15.6525 50.9243 15.6131 50.9 15.5725L50.8269 15.4496L50.6658 15.2143C50.6102 15.1378 50.5487 15.066 50.4942 14.9883C50.4328 14.9164 50.3679 14.8469 50.3065 14.7738C50.0456 14.498 49.7431 14.258 49.4023 14.0586C49.3142 14.0146 49.2296 13.9624 49.1392 13.9172L48.861 13.7897C48.7647 13.7561 48.6674 13.7155 48.5677 13.6773C48.4668 13.6471 48.3637 13.6123 48.2582 13.5741V13.4802H48.2559Z" fill="white"/>
<path d="M27.867 36.2778L21.7083 34.8949C21.0707 34.7523 20.6187 34.1867 20.6187 33.5329V17.331C20.6187 16.8326 20.8841 16.3724 21.3153 16.1231L27.4033 12.5992L27.867 36.2778Z" fill="#116C7E"/>
<path d="M39.4552 36.4749H28.9403C27.2722 36.4749 25.9194 35.1221 25.9194 33.4541V15.1993C25.9194 13.5312 27.2722 12.1785 28.9403 12.1785H39.4552V36.4749Z" fill="#1ABDCA"/>
<path d="M25.018 24.7474C25.018 27.3069 23.9689 29.3818 22.6741 29.3818C21.3782 29.3818 20.3291 27.3069 20.3291 24.7474C20.3291 22.1868 21.3782 20.1119 22.6741 20.1119C23.9689 20.1119 25.018 22.1868 25.018 24.7474Z" fill="#1ABDCA"/>
<path d="M22.3258 20.8005C22.3177 20.8005 22.3107 20.8016 22.3026 20.8016C22.2945 20.8016 22.2875 20.8005 22.2794 20.8005C22.2713 20.8005 22.2643 20.8016 22.2562 20.8016C22.2481 20.8016 22.2412 20.8005 22.233 20.8005C22.2249 20.8005 22.218 20.8016 22.2099 20.8016C22.2017 20.8016 22.1948 20.8005 22.1867 20.8005C22.1786 20.8005 22.1716 20.8016 22.1635 20.8016C22.1554 20.8016 22.1484 20.8005 22.1403 20.8005C22.1322 20.8005 22.1252 20.8016 22.1171 20.8016C22.109 20.8016 22.1021 20.8005 22.0939 20.8005C22.0858 20.8005 22.0789 20.8016 22.0708 20.8016C22.0626 20.8016 22.0557 20.8005 22.0476 20.8005C22.0395 20.8005 22.0325 20.8016 22.0244 20.8016C22.0163 20.8016 22.0093 20.8005 22.0012 20.8005C21.9931 20.8005 21.9861 20.8016 21.978 20.8016C21.9699 20.8016 21.963 20.8005 21.9548 20.8005C21.9467 20.8005 21.9398 20.8016 21.9317 20.8016C21.9235 20.8016 21.9166 20.8005 21.9085 20.8005C21.9004 20.8005 21.8934 20.8016 21.8853 20.8016C21.8772 20.8016 21.8702 20.8005 21.8621 20.8005C21.854 20.8005 21.847 20.8016 21.8389 20.8016C21.8308 20.8016 21.8239 20.8005 21.8157 20.8005C21.8076 20.8005 21.8007 20.8016 21.7926 20.8016C21.7844 20.8016 21.7775 20.8005 21.7694 20.8005C21.7613 20.8005 21.7543 20.8016 21.7462 20.8016C21.7381 20.8016 21.7311 20.8005 21.723 20.8005C21.7149 20.8005 21.7079 20.8016 21.6998 20.8016C21.6917 20.8016 21.6848 20.8005 21.6766 20.8005C21.6685 20.8005 21.6616 20.8016 21.6535 20.8016C21.6453 20.8016 21.6384 20.8005 21.6303 20.8005C21.6222 20.8005 21.6152 20.8016 21.6071 20.8016C21.599 20.8016 21.592 20.8005 21.5839 20.8005C21.5758 20.8005 21.5688 20.8016 21.5607 20.8016C21.5526 20.8016 21.5456 20.8005 21.5375 20.8005C21.5294 20.8005 21.5225 20.8016 21.5144 20.8016C21.5062 20.8016 21.4993 20.8005 21.4912 20.8005C21.4831 20.8005 21.4761 20.8016 21.468 20.8016C21.4599 20.8016 21.4529 20.8005 21.4448 20.8005C21.4367 20.8005 21.4297 20.8016 21.4216 20.8016C21.4135 20.8016 21.4065 20.8005 21.3984 20.8005C21.3903 20.8005 21.3834 20.8016 21.3752 20.8016C21.3671 20.8016 21.3602 20.8005 21.3521 20.8005C20.2485 20.8005 19.356 22.567 19.356 24.7474C19.356 26.9267 20.2497 28.6933 21.3521 28.6933C21.3602 28.6933 21.3671 28.6921 21.3752 28.6921C21.3834 28.6921 21.3903 28.6933 21.3984 28.6933C21.4065 28.6933 21.4135 28.6921 21.4216 28.6921C21.4297 28.6921 21.4367 28.6933 21.4448 28.6933C21.4529 28.6933 21.4599 28.6921 21.468 28.6921C21.4761 28.6921 21.4831 28.6933 21.4912 28.6933C21.4993 28.6933 21.5062 28.6921 21.5144 28.6921C21.5225 28.6921 21.5294 28.6933 21.5375 28.6933C21.5456 28.6933 21.5526 28.6921 21.5607 28.6921C21.5688 28.6921 21.5758 28.6933 21.5839 28.6933C21.592 28.6933 21.599 28.6921 21.6071 28.6921C21.6152 28.6921 21.6222 28.6933 21.6303 28.6933C21.6384 28.6933 21.6453 28.6921 21.6535 28.6921C21.6616 28.6921 21.6685 28.6933 21.6766 28.6933C21.6848 28.6933 21.6917 28.6921 21.6998 28.6921C21.7079 28.6921 21.7149 28.6933 21.723 28.6933C21.7311 28.6933 21.7381 28.6921 21.7462 28.6921C21.7543 28.6921 21.7613 28.6933 21.7694 28.6933C21.7775 28.6933 21.7844 28.6921 21.7926 28.6921C21.8007 28.6921 21.8076 28.6933 21.8157 28.6933C21.8239 28.6933 21.8308 28.6921 21.8389 28.6921C21.847 28.6921 21.854 28.6933 21.8621 28.6933C21.8702 28.6933 21.8772 28.6921 21.8853 28.6921C21.8934 28.6921 21.9004 28.6933 21.9085 28.6933C21.9166 28.6933 21.9235 28.6921 21.9317 28.6921C21.9398 28.6921 21.9467 28.6933 21.9548 28.6933C21.963 28.6933 21.9699 28.6921 21.978 28.6921C21.9861 28.6921 21.9931 28.6933 22.0012 28.6933C22.0093 28.6933 22.0163 28.6921 22.0244 28.6921C22.0325 28.6921 22.0395 28.6933 22.0476 28.6933C22.0557 28.6933 22.0626 28.6921 22.0708 28.6921C22.0789 28.6921 22.0858 28.6933 22.0939 28.6933C22.1021 28.6933 22.109 28.6921 22.1171 28.6921C22.1252 28.6921 22.1322 28.6933 22.1403 28.6933C22.1484 28.6933 22.1554 28.6921 22.1635 28.6921C22.1716 28.6921 22.1786 28.6933 22.1867 28.6933C22.1948 28.6933 22.2017 28.6921 22.2099 28.6921C22.218 28.6921 22.2249 28.6933 22.233 28.6933C22.2412 28.6933 22.2481 28.6921 22.2562 28.6921C22.2643 28.6921 22.2713 28.6933 22.2794 28.6933C22.2875 28.6933 22.2945 28.6921 22.3026 28.6921C22.3107 28.6921 22.3177 28.6933 22.3258 28.6933C23.4282 28.6933 24.3219 26.9267 24.3219 24.7474C24.3219 22.567 23.4282 20.8005 22.3258 20.8005Z" fill="#C22828"/>
<path d="M23.3531 24.7474C23.3531 26.9267 22.4605 28.6933 21.3569 28.6933C20.2534 28.6933 19.3608 26.9267 19.3608 24.7474C19.3608 22.5682 20.2546 20.8005 21.3569 20.8005C22.4605 20.8005 23.3531 22.567 23.3531 24.7474Z" fill="#ED332B"/>
<path d="M21.9008 24.7474C21.9008 25.3409 21.6574 25.8208 21.3571 25.8208C21.0569 25.8208 20.8135 25.3398 20.8135 24.7474C20.8135 24.1539 21.0569 23.6729 21.3571 23.6729C21.6574 23.6729 21.9008 24.1539 21.9008 24.7474Z" fill="#C22828"/>
<path d="M21.8974 24.7474C21.8974 25.3409 21.6539 25.8208 21.3537 25.8208C21.0535 25.8208 20.8101 25.3398 20.8101 24.7474C20.8101 24.1539 21.0535 23.6729 21.3537 23.6729C21.6539 23.6729 21.8974 24.1539 21.8974 24.7474Z" fill="#C22828"/>
<path d="M21.894 24.7474C21.894 25.3409 21.6505 25.8208 21.3503 25.8208C21.0501 25.8208 20.8066 25.3398 20.8066 24.7474C20.8066 24.1539 21.0501 23.6729 21.3503 23.6729C21.6505 23.6729 21.894 24.1539 21.894 24.7474Z" fill="#C22828"/>
<path d="M21.8905 24.7474C21.8905 25.3409 21.6471 25.8208 21.3469 25.8208C21.0466 25.8208 20.8032 25.3398 20.8032 24.7474C20.8032 24.1539 21.0466 23.6729 21.3469 23.6729C21.6471 23.6729 21.8905 24.1539 21.8905 24.7474Z" fill="#C22828"/>
<path d="M21.8871 24.7474C21.8871 25.3409 21.6437 25.8208 21.3435 25.8208C21.0432 25.8208 20.7998 25.3398 20.7998 24.7474C20.7998 24.1539 21.0432 23.6729 21.3435 23.6729C21.6437 23.6729 21.8871 24.1539 21.8871 24.7474Z" fill="#C22828"/>
<path d="M21.8832 24.7474C21.8832 25.3409 21.6398 25.8208 21.3396 25.8208C21.0393 25.8208 20.7959 25.3398 20.7959 24.7474C20.7959 24.1539 21.0393 23.6729 21.3396 23.6729C21.6398 23.6729 21.8832 24.1539 21.8832 24.7474Z" fill="#C22828"/>
<path d="M21.8798 24.7474C21.8798 25.3409 21.6364 25.8208 21.3361 25.8208C21.0359 25.8208 20.7925 25.3398 20.7925 24.7474C20.7925 24.1539 21.0359 23.6729 21.3361 23.6729C21.6364 23.6729 21.8798 24.1539 21.8798 24.7474Z" fill="#C22828"/>
<path d="M21.8764 24.7474C21.8764 25.3409 21.6329 25.8208 21.3327 25.8208C21.0325 25.8208 20.7891 25.3398 20.7891 24.7474C20.7891 24.1539 21.0325 23.6729 21.3327 23.6729C21.6329 23.6729 21.8764 24.1539 21.8764 24.7474Z" fill="#C22828"/>
<path d="M21.873 24.7474C21.873 25.3409 21.6295 25.8208 21.3293 25.8208C21.0291 25.8208 20.7856 25.3398 20.7856 24.7474C20.7856 24.1539 21.0291 23.6729 21.3293 23.6729C21.6295 23.6729 21.873 24.1539 21.873 24.7474Z" fill="#C22828"/>
<path d="M21.8695 24.7474C21.8695 25.3409 21.6261 25.8208 21.3259 25.8208C21.0257 25.8208 20.7822 25.3398 20.7822 24.7474C20.7822 24.1539 21.0257 23.6729 21.3259 23.6729C21.6261 23.6729 21.8695 24.1539 21.8695 24.7474Z" fill="#C22828"/>
<path d="M21.8647 24.7474C21.8647 25.3409 21.6212 25.8208 21.321 25.8208C21.0208 25.8208 20.7773 25.3398 20.7773 24.7474C20.7773 24.1539 21.0208 23.6729 21.321 23.6729C21.6224 23.6729 21.8647 24.1539 21.8647 24.7474Z" fill="#C22828"/>
<path d="M21.8612 24.7474C21.8612 25.3409 21.6178 25.8208 21.3176 25.8208C21.0174 25.8208 20.7739 25.3398 20.7739 24.7474C20.7739 24.1539 21.0174 23.6729 21.3176 23.6729C21.619 23.6729 21.8612 24.1539 21.8612 24.7474Z" fill="#C22828"/>
<path d="M21.8578 24.7474C21.8578 25.3409 21.6144 25.8208 21.3142 25.8208C21.0139 25.8208 20.7705 25.3398 20.7705 24.7474C20.7705 24.1539 21.0139 23.6729 21.3142 23.6729C21.6155 23.6729 21.8578 24.1539 21.8578 24.7474Z" fill="#C22828"/>
<path d="M21.8539 24.7474C21.8539 25.3409 21.6105 25.8208 21.3103 25.8208C21.01 25.8208 20.7666 25.3398 20.7666 24.7474C20.7666 24.1539 21.01 23.6729 21.3103 23.6729C21.6116 23.6729 21.8539 24.1539 21.8539 24.7474Z" fill="#C22828"/>
<path d="M21.8505 24.7474C21.8505 25.3409 21.6071 25.8208 21.3068 25.8208C21.0066 25.8208 20.7632 25.3398 20.7632 24.7474C20.7632 24.1539 21.0066 23.6729 21.3068 23.6729C21.6082 23.6729 21.8505 24.1539 21.8505 24.7474Z" fill="#C22828"/>
<path d="M21.8471 24.7474C21.8471 25.3409 21.6036 25.8208 21.3034 25.8208C21.0032 25.8208 20.7598 25.3398 20.7598 24.7474C20.7598 24.1539 21.0032 23.6729 21.3034 23.6729C21.6048 23.6729 21.8471 24.1539 21.8471 24.7474Z" fill="#C22828"/>
<path d="M21.8437 24.7474C21.8437 25.3409 21.6002 25.8208 21.3 25.8208C20.9998 25.8208 20.7563 25.3398 20.7563 24.7474C20.7563 24.1539 20.9998 23.6729 21.3 23.6729C21.6002 23.6729 21.8437 24.1539 21.8437 24.7474Z" fill="#C22828"/>
<path d="M21.8402 24.7474C21.8402 25.3409 21.5968 25.8208 21.2966 25.8208C20.9964 25.8208 20.7529 25.3398 20.7529 24.7474C20.7529 24.1539 20.9964 23.6729 21.2966 23.6729C21.5968 23.6729 21.8402 24.1539 21.8402 24.7474Z" fill="#C22828"/>
<path d="M21.8368 24.7474C21.8368 25.3409 21.5934 25.8208 21.2932 25.8208C20.9929 25.8208 20.7495 25.3398 20.7495 24.7474C20.7495 24.1539 20.9929 23.6729 21.2932 23.6729C21.5934 23.6729 21.8368 24.1539 21.8368 24.7474Z" fill="#C22828"/>
<path d="M21.8334 24.7474C21.8334 25.3409 21.59 25.8208 21.2898 25.8208C20.9895 25.8208 20.7461 25.3398 20.7461 24.7474C20.7461 24.1539 20.9895 23.6729 21.2898 23.6729C21.59 23.6729 21.8334 24.1539 21.8334 24.7474Z" fill="#C22828"/>
<path d="M21.83 24.7474C21.83 25.3409 21.5866 25.8208 21.2863 25.8208C20.9861 25.8208 20.7427 25.3398 20.7427 24.7474C20.7427 24.1539 20.9861 23.6729 21.2863 23.6729C21.5866 23.6729 21.83 24.1539 21.83 24.7474Z" fill="#C22828"/>
<path d="M21.8261 24.7474C21.8261 25.3409 21.5827 25.8208 21.2824 25.8208C20.9822 25.8208 20.7388 25.3398 20.7388 24.7474C20.7388 24.1539 20.9822 23.6729 21.2824 23.6729C21.5827 23.6729 21.8261 24.1539 21.8261 24.7474Z" fill="#C22828"/>
<path d="M21.8227 24.7474C21.8227 25.3409 21.5792 25.8208 21.279 25.8208C20.9788 25.8208 20.7354 25.3398 20.7354 24.7474C20.7354 24.1539 20.9788 23.6729 21.279 23.6729C21.5792 23.6729 21.8227 24.1539 21.8227 24.7474Z" fill="#C22828"/>
<path d="M21.8192 24.7474C21.8192 25.3409 21.5758 25.8208 21.2756 25.8208C20.9754 25.8208 20.7319 25.3398 20.7319 24.7474C20.7319 24.1539 20.9754 23.6729 21.2756 23.6729C21.5758 23.6729 21.8192 24.1539 21.8192 24.7474Z" fill="#C22828"/>
<path d="M21.8158 24.7474C21.8158 25.3409 21.5724 25.8208 21.2722 25.8208C20.9719 25.8208 20.7285 25.3398 20.7285 24.7474C20.7285 24.1539 20.9719 23.6729 21.2722 23.6729C21.5724 23.6729 21.8158 24.1539 21.8158 24.7474Z" fill="#C22828"/>
<path d="M21.8124 24.7474C21.8124 25.3409 21.569 25.8208 21.2688 25.8208C20.9685 25.8208 20.7251 25.3398 20.7251 24.7474C20.7251 24.1539 20.9685 23.6729 21.2688 23.6729C21.569 23.6729 21.8124 24.1539 21.8124 24.7474Z" fill="#C22828"/>
<path d="M21.809 24.7474C21.809 25.3409 21.5656 25.8208 21.2653 25.8208C20.9651 25.8208 20.7217 25.3398 20.7217 24.7474C20.7217 24.1539 20.9651 23.6729 21.2653 23.6729C21.5656 23.6729 21.809 24.1539 21.809 24.7474Z" fill="#C22828"/>
<path d="M21.8056 24.7474C21.8056 25.3409 21.5621 25.8208 21.2619 25.8208C20.9617 25.8208 20.7183 25.3398 20.7183 24.7474C20.7183 24.1539 20.9617 23.6729 21.2619 23.6729C21.5621 23.6729 21.8056 24.1539 21.8056 24.7474Z" fill="#C22828"/>
<path d="M21.8012 24.7474C21.8012 25.3409 21.5578 25.8208 21.2575 25.8208C20.9573 25.8208 20.7139 25.3398 20.7139 24.7474C20.7139 24.1539 20.9573 23.6729 21.2575 23.6729C21.5589 23.6729 21.8012 24.1539 21.8012 24.7474Z" fill="#C22828"/>
<path d="M21.7973 24.7474C21.7973 25.3409 21.5538 25.8208 21.2536 25.8208C20.9534 25.8208 20.71 25.3398 20.71 24.7474C20.71 24.1539 20.9534 23.6729 21.2536 23.6729C21.555 23.6729 21.7973 24.1539 21.7973 24.7474Z" fill="#C22828"/>
<path d="M21.7939 24.7474C21.7939 25.3409 21.5504 25.8208 21.2502 25.8208C20.95 25.8208 20.7065 25.3398 20.7065 24.7474C20.7065 24.1539 20.95 23.6729 21.2502 23.6729C21.5516 23.6729 21.7939 24.1539 21.7939 24.7474Z" fill="#C22828"/>
<path d="M21.7904 24.7474C21.7904 25.3409 21.547 25.8208 21.2468 25.8208C20.9466 25.8208 20.7031 25.3398 20.7031 24.7474C20.7031 24.1539 20.9466 23.6729 21.2468 23.6729C21.5482 23.6729 21.7904 24.1539 21.7904 24.7474Z" fill="#C22828"/>
<path d="M21.787 24.7474C21.787 25.3409 21.5436 25.8208 21.2434 25.8208C20.9431 25.8208 20.6997 25.3398 20.6997 24.7474C20.6997 24.1539 20.9431 23.6729 21.2434 23.6729C21.5447 23.6729 21.787 24.1539 21.787 24.7474Z" fill="#C22828"/>
<path d="M21.7836 24.7474C21.7836 25.3409 21.5402 25.8208 21.2399 25.8208C20.9397 25.8208 20.6963 25.3398 20.6963 24.7474C20.6963 24.1539 20.9397 23.6729 21.2399 23.6729C21.5402 23.6729 21.7836 24.1539 21.7836 24.7474Z" fill="#C22828"/>
<path d="M21.7802 24.7474C21.7802 25.3409 21.5368 25.8208 21.2365 25.8208C20.9363 25.8208 20.6929 25.3398 20.6929 24.7474C20.6929 24.1539 20.9363 23.6729 21.2365 23.6729C21.5368 23.6729 21.7802 24.1539 21.7802 24.7474Z" fill="#C22828"/>
<path d="M21.7768 24.7474C21.7768 25.3409 21.5333 25.8208 21.2331 25.8208C20.9329 25.8208 20.6895 25.3398 20.6895 24.7474C20.6895 24.1539 20.9329 23.6729 21.2331 23.6729C21.5333 23.6729 21.7768 24.1539 21.7768 24.7474Z" fill="#C22828"/>
<path d="M21.7733 24.7474C21.7733 25.3409 21.5299 25.8208 21.2297 25.8208C20.9295 25.8208 20.686 25.3398 20.686 24.7474C20.686 24.1539 20.9295 23.6729 21.2297 23.6729C21.5299 23.6729 21.7733 24.1539 21.7733 24.7474Z" fill="#C22828"/>
<path d="M21.7694 24.7474C21.7694 25.3409 21.526 25.8208 21.2258 25.8208C20.9256 25.8208 20.6821 25.3398 20.6821 24.7474C20.6821 24.1539 20.9256 23.6729 21.2258 23.6729C21.526 23.6729 21.7694 24.1539 21.7694 24.7474Z" fill="#C22828"/>
<path d="M21.766 24.7474C21.766 25.3409 21.5226 25.8208 21.2224 25.8208C20.9221 25.8208 20.6787 25.3398 20.6787 24.7474C20.6787 24.1539 20.9221 23.6729 21.2224 23.6729C21.5226 23.6729 21.766 24.1539 21.766 24.7474Z" fill="#C22828"/>
<path d="M21.7611 24.7474C21.7611 25.3409 21.5177 25.8208 21.2175 25.8208C20.9173 25.8208 20.6738 25.3398 20.6738 24.7474C20.6738 24.1539 20.9173 23.6729 21.2175 23.6729C21.5177 23.6729 21.7611 24.1539 21.7611 24.7474Z" fill="#C22828"/>
<path d="M21.7587 24.7474C21.7587 25.3409 21.5153 25.8208 21.215 25.8208C20.9148 25.8208 20.6714 25.3398 20.6714 24.7474C20.6714 24.1539 20.9148 23.6729 21.215 23.6729C21.5153 23.6729 21.7587 24.1539 21.7587 24.7474Z" fill="#C22828"/>
<path d="M21.7558 24.7474C21.7558 25.3409 21.5123 25.8208 21.2121 25.8208C20.9119 25.8208 20.6685 25.3398 20.6685 24.7474C20.6685 24.1539 20.9119 23.6729 21.2121 23.6729C21.5123 23.6729 21.7558 24.1539 21.7558 24.7474Z" fill="#C22828"/>
<path d="M21.0673 23.6729C21.0592 23.6729 21.0522 23.6741 21.0441 23.6752C21.036 23.6741 21.029 23.6729 21.0209 23.6729C21.0128 23.6729 21.0058 23.6741 20.9977 23.6752C20.9896 23.6741 20.9826 23.6729 20.9745 23.6729C20.9664 23.6729 20.9595 23.6741 20.9514 23.6752C20.9432 23.6741 20.9363 23.6729 20.9282 23.6729C20.9201 23.6729 20.9131 23.6741 20.905 23.6752C20.8969 23.6741 20.8899 23.6729 20.8818 23.6729C20.8737 23.6729 20.8667 23.6741 20.8586 23.6752C20.8505 23.6741 20.8435 23.6729 20.8354 23.6729C20.8273 23.6729 20.8204 23.6741 20.8122 23.6752C20.8041 23.6741 20.7972 23.6729 20.7891 23.6729C20.781 23.6729 20.774 23.6741 20.7659 23.6752C20.7578 23.6741 20.7508 23.6729 20.7427 23.6729C20.7346 23.6729 20.7276 23.6741 20.7195 23.6752C20.7114 23.6741 20.7044 23.6729 20.6963 23.6729C20.6882 23.6729 20.6813 23.6741 20.6731 23.6752C20.665 23.6741 20.6581 23.6729 20.65 23.6729C20.6419 23.6729 20.6349 23.6741 20.6268 23.6752C20.6187 23.6741 20.6117 23.6729 20.6036 23.6729C20.5955 23.6729 20.5885 23.6741 20.5804 23.6752C20.5723 23.6741 20.5653 23.6729 20.5572 23.6729C20.5491 23.6729 20.5422 23.6741 20.534 23.6752C20.5259 23.6741 20.519 23.6729 20.5109 23.6729C20.5027 23.6729 20.4958 23.6741 20.4877 23.6752C20.4796 23.6741 20.4726 23.6729 20.4645 23.6729C20.4564 23.6729 20.4494 23.6741 20.4413 23.6752C20.4332 23.6741 20.4262 23.6729 20.4181 23.6729C20.41 23.6729 20.4031 23.6741 20.3949 23.6752C20.3868 23.6741 20.3799 23.6729 20.3718 23.6729C20.3636 23.6729 20.3567 23.6741 20.3486 23.6752C20.3405 23.6741 20.3335 23.6729 20.3254 23.6729C20.3173 23.6729 20.3103 23.6741 20.3022 23.6752C20.2941 23.6741 20.2871 23.6729 20.279 23.6729C20.2709 23.6729 20.264 23.6741 20.2558 23.6752C20.2477 23.6741 20.2408 23.6729 20.2327 23.6729C20.2245 23.6729 20.2176 23.6741 20.2095 23.6752C20.2014 23.6741 20.1944 23.6729 20.1863 23.6729C20.1782 23.6729 20.1712 23.6741 20.1631 23.6752C20.155 23.6741 20.148 23.6729 20.1399 23.6729C20.1318 23.6729 20.1249 23.6741 20.1167 23.6752C20.1086 23.6741 20.1017 23.6729 20.0936 23.6729C20.0854 23.6729 20.0785 23.6741 20.0704 23.6752C20.0623 23.6741 20.0553 23.6729 20.0472 23.6729C20.0391 23.6729 20.0321 23.6741 20.024 23.6752C20.0159 23.6741 20.0089 23.6729 20.0008 23.6729C19.9927 23.6729 19.9858 23.6741 19.9776 23.6752C19.9695 23.6741 19.9626 23.6729 19.9545 23.6729C19.9463 23.6729 19.9394 23.6741 19.9313 23.6752C19.9232 23.6741 19.9162 23.6729 19.9081 23.6729C19.9 23.6729 19.893 23.6741 19.8849 23.6752C19.8768 23.6741 19.8698 23.6729 19.8617 23.6729C19.8536 23.6729 19.8467 23.6741 19.8385 23.6752C19.8304 23.6741 19.8235 23.6729 19.8154 23.6729C19.8072 23.6729 19.8003 23.6741 19.7922 23.6752C19.7841 23.6741 19.7771 23.6729 19.769 23.6729C19.7609 23.6729 19.7539 23.6741 19.7458 23.6752C19.7377 23.6741 19.7307 23.6729 19.7226 23.6729C19.7145 23.6729 19.7076 23.6741 19.6994 23.6752C19.6913 23.6741 19.6844 23.6729 19.6763 23.6729C19.6681 23.6729 19.6612 23.6741 19.6531 23.6752C19.645 23.6741 19.638 23.6729 19.6299 23.6729C19.6218 23.6729 19.6148 23.6741 19.6067 23.6752C19.5986 23.6741 19.5916 23.6729 19.5835 23.6729C19.5754 23.6729 19.5685 23.6741 19.5603 23.6752C19.5522 23.6741 19.5453 23.6729 19.5372 23.6729C19.529 23.6729 19.5221 23.6741 19.514 23.6752C19.5059 23.6741 19.4989 23.6729 19.4908 23.6729C19.4827 23.6729 19.4757 23.6741 19.4676 23.6752C19.4595 23.6741 19.4525 23.6729 19.4444 23.6729C19.4363 23.6729 19.4293 23.6741 19.4212 23.6752C19.4131 23.6741 19.4062 23.6729 19.3981 23.6729C19.3899 23.6729 19.383 23.6741 19.3749 23.6752C19.3668 23.6741 19.3598 23.6729 19.3517 23.6729C19.3436 23.6729 19.3366 23.6741 19.3285 23.6752C19.3204 23.6741 19.3134 23.6729 19.3053 23.6729C19.2972 23.6729 19.2902 23.6741 19.2821 23.6752C19.274 23.6741 19.2671 23.6729 19.2589 23.6729C19.2508 23.6729 19.2439 23.6741 19.2358 23.6752C19.2277 23.6741 19.2207 23.6729 19.2126 23.6729C19.2045 23.6729 19.1975 23.6741 19.1894 23.6752C19.1813 23.6741 19.1743 23.6729 19.1662 23.6729C18.866 23.6729 18.6226 24.1539 18.6226 24.7474C18.6226 25.3409 18.866 25.8208 19.1662 25.8208C19.1743 25.8208 19.1813 25.8197 19.1894 25.8185C19.1975 25.8197 19.2045 25.8208 19.2126 25.8208C19.2207 25.8208 19.2277 25.8197 19.2358 25.8185C19.2439 25.8197 19.2508 25.8208 19.2589 25.8208C19.2671 25.8208 19.274 25.8197 19.2821 25.8185C19.2902 25.8197 19.2972 25.8208 19.3053 25.8208C19.3134 25.8208 19.3204 25.8197 19.3285 25.8185C19.3366 25.8197 19.3436 25.8208 19.3517 25.8208C19.3598 25.8208 19.3668 25.8197 19.3749 25.8185C19.383 25.8197 19.3899 25.8208 19.3981 25.8208C19.4062 25.8208 19.4131 25.8197 19.4212 25.8185C19.4293 25.8197 19.4363 25.8208 19.4444 25.8208C19.4525 25.8208 19.4595 25.8197 19.4676 25.8185C19.4757 25.8197 19.4827 25.8208 19.4908 25.8208C19.4989 25.8208 19.5059 25.8197 19.514 25.8185C19.5221 25.8197 19.529 25.8208 19.5372 25.8208C19.5453 25.8208 19.5522 25.8197 19.5603 25.8185C19.5685 25.8197 19.5754 25.8208 19.5835 25.8208C19.5916 25.8208 19.5986 25.8197 19.6067 25.8185C19.6148 25.8197 19.6218 25.8208 19.6299 25.8208C19.638 25.8208 19.645 25.8197 19.6531 25.8185C19.6612 25.8197 19.6681 25.8208 19.6763 25.8208C19.6844 25.8208 19.6913 25.8197 19.6994 25.8185C19.7076 25.8197 19.7145 25.8208 19.7226 25.8208C19.7307 25.8208 19.7377 25.8197 19.7458 25.8185C19.7539 25.8197 19.7609 25.8208 19.769 25.8208C19.7771 25.8208 19.7841 25.8197 19.7922 25.8185C19.8003 25.8197 19.8072 25.8208 19.8154 25.8208C19.8235 25.8208 19.8304 25.8197 19.8385 25.8185C19.8467 25.8197 19.8536 25.8208 19.8617 25.8208C19.8698 25.8208 19.8768 25.8197 19.8849 25.8185C19.893 25.8197 19.9 25.8208 19.9081 25.8208C19.9162 25.8208 19.9232 25.8197 19.9313 25.8185C19.9394 25.8197 19.9463 25.8208 19.9545 25.8208C19.9626 25.8208 19.9695 25.8197 19.9776 25.8185C19.9858 25.8197 19.9927 25.8208 20.0008 25.8208C20.0089 25.8208 20.0159 25.8197 20.024 25.8185C20.0321 25.8197 20.0391 25.8208 20.0472 25.8208C20.0553 25.8208 20.0623 25.8197 20.0704 25.8185C20.0785 25.8197 20.0854 25.8208 20.0936 25.8208C20.1017 25.8208 20.1086 25.8197 20.1167 25.8185C20.1249 25.8197 20.1318 25.8208 20.1399 25.8208C20.148 25.8208 20.155 25.8197 20.1631 25.8185C20.1712 25.8197 20.1782 25.8208 20.1863 25.8208C20.1944 25.8208 20.2014 25.8197 20.2095 25.8185C20.2176 25.8197 20.2245 25.8208 20.2327 25.8208C20.2408 25.8208 20.2477 25.8197 20.2558 25.8185C20.264 25.8197 20.2709 25.8208 20.279 25.8208C20.2871 25.8208 20.2941 25.8197 20.3022 25.8185C20.3103 25.8197 20.3173 25.8208 20.3254 25.8208C20.3335 25.8208 20.3405 25.8197 20.3486 25.8185C20.3567 25.8197 20.3636 25.8208 20.3718 25.8208C20.3799 25.8208 20.3868 25.8197 20.3949 25.8185C20.4031 25.8197 20.41 25.8208 20.4181 25.8208C20.4262 25.8208 20.4332 25.8197 20.4413 25.8185C20.4494 25.8197 20.4564 25.8208 20.4645 25.8208C20.4726 25.8208 20.4796 25.8197 20.4877 25.8185C20.4958 25.8197 20.5027 25.8208 20.5109 25.8208C20.519 25.8208 20.5259 25.8197 20.534 25.8185C20.5422 25.8197 20.5491 25.8208 20.5572 25.8208C20.5653 25.8208 20.5723 25.8197 20.5804 25.8185C20.5885 25.8197 20.5955 25.8208 20.6036 25.8208C20.6117 25.8208 20.6187 25.8197 20.6268 25.8185C20.6349 25.8197 20.6419 25.8208 20.65 25.8208C20.6581 25.8208 20.665 25.8197 20.6731 25.8185C20.6813 25.8197 20.6882 25.8208 20.6963 25.8208C20.7044 25.8208 20.7114 25.8197 20.7195 25.8185C20.7276 25.8197 20.7346 25.8208 20.7427 25.8208C20.7508 25.8208 20.7578 25.8197 20.7659 25.8185C20.774 25.8197 20.781 25.8208 20.7891 25.8208C20.7972 25.8208 20.8041 25.8197 20.8122 25.8185C20.8204 25.8197 20.8273 25.8208 20.8354 25.8208C20.8435 25.8208 20.8505 25.8197 20.8586 25.8185C20.8667 25.8197 20.8737 25.8208 20.8818 25.8208C20.8899 25.8208 20.8969 25.8197 20.905 25.8185C20.9131 25.8197 20.9201 25.8208 20.9282 25.8208C20.9363 25.8208 20.9432 25.8197 20.9514 25.8185C20.9595 25.8197 20.9664 25.8208 20.9745 25.8208C20.9826 25.8208 20.9896 25.8197 20.9977 25.8185C21.0058 25.8197 21.0128 25.8208 21.0209 25.8208C21.029 25.8208 21.036 25.8197 21.0441 25.8185C21.0522 25.8197 21.0592 25.8208 21.0673 25.8208C21.3675 25.8208 21.6109 25.3398 21.6109 24.7474C21.6098 24.1539 21.3675 23.6729 21.0673 23.6729Z" fill="#92D5E3"/>
<path d="M45.5108 29.5592C45.5132 29.5511 45.5166 29.543 45.519 29.5349C45.5213 29.5268 45.5248 29.5186 45.5271 29.5105C45.5294 29.5024 45.5329 29.4943 45.5352 29.4862C45.5375 29.4781 45.541 29.47 45.5433 29.4618C45.5456 29.4537 45.5491 29.4456 45.5514 29.4375C45.5537 29.4294 45.5572 29.4213 45.5595 29.4132C45.5618 29.405 45.5653 29.3969 45.5676 29.3888C45.57 29.3807 45.5734 29.3726 45.5758 29.3645C45.5781 29.3564 45.5816 29.3482 45.5839 29.3401C45.5862 29.332 45.5897 29.3239 45.592 29.3158C45.5943 29.3077 45.5978 29.2996 45.6001 29.2914C45.6024 29.2833 45.6059 29.2752 45.6082 29.2671C45.6105 29.259 45.614 29.2509 45.6163 29.2428C45.6186 29.2346 45.6221 29.2265 45.6244 29.2184C45.6268 29.2103 45.6302 29.2022 45.6326 29.1941C45.6349 29.186 45.6384 29.1778 45.6407 29.1697C45.643 29.1616 45.6465 29.1535 45.6488 29.1454C45.6511 29.1373 45.6546 29.1292 45.6569 29.121C45.6592 29.1129 45.6627 29.1048 45.665 29.0967C45.6673 29.0886 45.6708 29.0805 45.6731 29.0724C45.6755 29.0642 45.6789 29.0561 45.6812 29.048C45.6836 29.0399 45.687 29.0318 45.6894 29.0237C45.6917 29.0156 45.6952 29.0074 45.6975 28.9993C45.6998 28.9912 45.7033 28.9831 45.7056 28.975C45.7079 28.9669 45.7114 28.9588 45.7137 28.9506C45.716 28.9425 45.7195 28.9344 45.7218 28.9263C45.7241 28.9182 45.7276 28.9101 45.7299 28.902C45.7323 28.8938 45.7357 28.8857 45.738 28.8776C45.8795 28.48 45.8447 28.0592 45.5375 27.6292C45.483 27.5422 45.4216 27.4553 45.3474 27.3661C45.2176 27.2455 45.0924 27.1528 44.9695 27.0821C44.5708 26.8305 44.1929 26.8572 43.8254 27.0183C43.2133 27.2745 42.6477 27.9027 42.0275 28.247C40.1207 29.3332 37.5739 28.9321 36.0554 27.3591C35.1118 26.4271 33.8448 27.0844 33.5388 28.0407C33.5365 28.0476 33.5342 28.0546 33.5319 28.0616C33.5284 28.0697 33.5261 28.0778 33.5237 28.0859C33.5203 28.094 33.518 28.1021 33.5156 28.1102C33.5122 28.1184 33.5098 28.1265 33.5075 28.1346C33.504 28.1427 33.5017 28.1508 33.4994 28.1589C33.4959 28.167 33.4936 28.1752 33.4913 28.1833C33.4878 28.1914 33.4855 28.1995 33.4832 28.2076C33.4797 28.2157 33.4774 28.2238 33.4751 28.232C33.4716 28.2401 33.4693 28.2482 33.4669 28.2563C33.4635 28.2644 33.4612 28.2725 33.4588 28.2806C33.4554 28.2888 33.453 28.2969 33.4507 28.305C33.4472 28.3131 33.4449 28.3212 33.4426 28.3293C33.4391 28.3374 33.4368 28.3456 33.4345 28.3537C33.431 28.3618 33.4287 28.3699 33.4264 28.378C33.4229 28.3861 33.4206 28.3942 33.4183 28.4024C33.4148 28.4105 33.4125 28.4186 33.4101 28.4267C33.4067 28.4348 33.4044 28.4429 33.402 28.451C33.3986 28.4592 33.3962 28.4673 33.3939 28.4754C33.3904 28.4835 33.3881 28.4916 33.3858 28.4997C33.3823 28.5078 33.38 28.516 33.3777 28.5241C33.3742 28.5322 33.3719 28.5403 33.3696 28.5484C33.3661 28.5565 33.3638 28.5646 33.3615 28.5728C33.358 28.5809 33.3557 28.589 33.3533 28.5971C33.3499 28.6052 33.3476 28.6133 33.3452 28.6214C33.3418 28.6296 33.3394 28.6377 33.3371 28.6458C33.3336 28.6539 33.3313 28.662 33.329 28.6701C33.3255 28.6782 33.3232 28.6864 33.3209 28.6945C33.3197 28.6979 33.3186 28.7014 33.3163 28.7061C33.1273 29.1918 33.1853 29.7679 33.6721 30.2559C34.7838 31.3583 36.2038 32.1453 37.7385 32.4664C39.2814 32.7887 40.9101 32.6438 42.3729 32.0549C43.0499 31.7512 44.0538 31.247 44.7481 30.6059C45.1051 30.286 45.3857 29.9325 45.5108 29.5592Z" fill="#116C7E"/>
<path d="M34.6612 17.3368C34.6577 17.3368 34.653 17.3368 34.6496 17.3368C34.6461 17.3368 34.6414 17.3368 34.638 17.3368C34.6345 17.3368 34.6299 17.3368 34.6264 17.3368C34.6229 17.3368 34.6183 17.3368 34.6148 17.3368C34.6113 17.3368 34.6067 17.3368 34.6032 17.3368C34.5997 17.3368 34.5951 17.3368 34.5916 17.3368C34.5881 17.3368 34.5835 17.3368 34.58 17.3368C34.5765 17.3368 34.5719 17.3368 34.5684 17.3368C34.5649 17.3368 34.5603 17.3368 34.5568 17.3368C34.5533 17.3368 34.5487 17.3368 34.5452 17.3368C34.5418 17.3368 34.5371 17.3368 34.5336 17.3368C34.5302 17.3368 34.5255 17.3368 34.522 17.3368C34.5186 17.3368 34.5139 17.3368 34.5105 17.3368C34.507 17.3368 34.5023 17.3368 34.4989 17.3368C34.4954 17.3368 34.4908 17.3368 34.4873 17.3368C34.4838 17.3368 34.4792 17.3368 34.4757 17.3368C34.4722 17.3368 34.4676 17.3368 34.4641 17.3368C34.4606 17.3368 34.456 17.3368 34.4525 17.3368C34.449 17.3368 34.4444 17.3368 34.4409 17.3368C34.4374 17.3368 34.4328 17.3368 34.4293 17.3368C34.4258 17.3368 34.4212 17.3368 34.4177 17.3368C34.4142 17.3368 34.4096 17.3368 34.4061 17.3368C34.4027 17.3368 34.398 17.3368 34.3945 17.3368C34.3911 17.3368 34.3864 17.3368 34.3829 17.3368C34.3795 17.3368 34.3748 17.3368 34.3714 17.3368C34.3679 17.3368 34.3632 17.3368 34.3598 17.3368C34.3563 17.3368 34.3516 17.3368 34.3482 17.3368C34.3447 17.3368 34.3401 17.3368 34.3366 17.3368C34.3331 17.3368 34.3285 17.3368 34.325 17.3368C34.3215 17.3368 34.3169 17.3368 34.3134 17.3368C34.3099 17.3368 34.3053 17.3368 34.3018 17.3368C34.2983 17.3368 34.2937 17.3368 34.2902 17.3368C34.2867 17.3368 34.2821 17.3368 34.2786 17.3368C34.2751 17.3368 34.2705 17.3368 34.267 17.3368C34.2636 17.3368 34.2589 17.3368 34.2554 17.3368C34.252 17.3368 34.2473 17.3368 34.2438 17.3368C34.2404 17.3368 34.2357 17.3368 34.2323 17.3368C34.2288 17.3368 34.2241 17.3368 34.2207 17.3368C34.2172 17.3368 34.2125 17.3368 34.2091 17.3368C34.2056 17.3368 34.201 17.3368 34.1975 17.3368C34.194 17.3368 34.1894 17.3368 34.1859 17.3368C34.1824 17.3368 34.1778 17.3368 34.1743 17.3368C34.1708 17.3368 34.1662 17.3368 34.1627 17.3368C34.1592 17.3368 34.1546 17.3368 34.1511 17.3368C34.1476 17.3368 34.143 17.3368 34.1395 17.3368C34.136 17.3368 34.1314 17.3368 34.1279 17.3368C34.1245 17.3368 34.1198 17.3368 34.1163 17.3368C34.1129 17.3368 34.1082 17.3368 34.1047 17.3368C34.1013 17.3368 34.0966 17.3368 34.0932 17.3368C34.0897 17.3368 34.085 17.3368 34.0816 17.3368C34.0781 17.3368 34.0734 17.3368 34.07 17.3368C34.0665 17.3368 34.0619 17.3368 34.0584 17.3368C34.0549 17.3368 34.0503 17.3368 34.0468 17.3368C34.0433 17.3368 34.0387 17.3368 34.0352 17.3368C34.0317 17.3368 34.0271 17.3368 34.0236 17.3368C34.0201 17.3368 34.0155 17.3368 34.012 17.3368C34.0085 17.3368 34.0039 17.3368 34.0004 17.3368C33.9969 17.3368 33.9923 17.3368 33.9888 17.3368C33.9853 17.3368 33.9807 17.3368 33.9772 17.3368C33.9738 17.3368 33.9691 17.3368 33.9656 17.3368C33.9622 17.3368 33.9575 17.3368 33.9541 17.3368C33.9506 17.3368 33.9459 17.3368 33.9425 17.3368C32.0344 17.3368 30.4893 18.8832 30.4893 20.7888C30.4893 22.6945 32.0356 24.2409 33.9425 24.2409C33.9459 24.2409 33.9506 24.2409 33.9541 24.2409C33.9575 24.2409 33.9622 24.2409 33.9656 24.2409C33.9691 24.2409 33.9738 24.2409 33.9772 24.2409C33.9807 24.2409 33.9853 24.2409 33.9888 24.2409C33.9923 24.2409 33.9969 24.2409 34.0004 24.2409C34.0039 24.2409 34.0085 24.2409 34.012 24.2409C34.0155 24.2409 34.0201 24.2409 34.0236 24.2409C34.0271 24.2409 34.0317 24.2409 34.0352 24.2409C34.0387 24.2409 34.0433 24.2409 34.0468 24.2409C34.0503 24.2409 34.0549 24.2409 34.0584 24.2409C34.0619 24.2409 34.0665 24.2409 34.07 24.2409C34.0734 24.2409 34.0781 24.2409 34.0816 24.2409C34.085 24.2409 34.0897 24.2409 34.0932 24.2409C34.0966 24.2409 34.1013 24.2409 34.1047 24.2409C34.1082 24.2409 34.1129 24.2409 34.1163 24.2409C34.1198 24.2409 34.1245 24.2409 34.1279 24.2409C34.1314 24.2409 34.136 24.2409 34.1395 24.2409C34.143 24.2409 34.1476 24.2409 34.1511 24.2409C34.1546 24.2409 34.1592 24.2409 34.1627 24.2409C34.1662 24.2409 34.1708 24.2409 34.1743 24.2409C34.1778 24.2409 34.1824 24.2409 34.1859 24.2409C34.1894 24.2409 34.194 24.2409 34.1975 24.2409C34.201 24.2409 34.2056 24.2409 34.2091 24.2409C34.2125 24.2409 34.2172 24.2409 34.2207 24.2409C34.2241 24.2409 34.2288 24.2409 34.2323 24.2409C34.2357 24.2409 34.2404 24.2409 34.2438 24.2409C34.2473 24.2409 34.252 24.2409 34.2554 24.2409C34.2589 24.2409 34.2636 24.2409 34.267 24.2409C34.2705 24.2409 34.2751 24.2409 34.2786 24.2409C34.2821 24.2409 34.2867 24.2409 34.2902 24.2409C34.2937 24.2409 34.2983 24.2409 34.3018 24.2409C34.3053 24.2409 34.3099 24.2409 34.3134 24.2409C34.3169 24.2409 34.3215 24.2409 34.325 24.2409C34.3285 24.2409 34.3331 24.2409 34.3366 24.2409C34.3401 24.2409 34.3447 24.2409 34.3482 24.2409C34.3516 24.2409 34.3563 24.2409 34.3598 24.2409C34.3632 24.2409 34.3679 24.2409 34.3714 24.2409C34.3748 24.2409 34.3795 24.2409 34.3829 24.2409C34.3864 24.2409 34.3911 24.2409 34.3945 24.2409C34.398 24.2409 34.4027 24.2409 34.4061 24.2409C34.4096 24.2409 34.4142 24.2409 34.4177 24.2409C34.4212 24.2409 34.4258 24.2409 34.4293 24.2409C34.4328 24.2409 34.4374 24.2409 34.4409 24.2409C34.4444 24.2409 34.449 24.2409 34.4525 24.2409C34.456 24.2409 34.4606 24.2409 34.4641 24.2409C34.4676 24.2409 34.4722 24.2409 34.4757 24.2409C34.4792 24.2409 34.4838 24.2409 34.4873 24.2409C34.4908 24.2409 34.4954 24.2409 34.4989 24.2409C34.5023 24.2409 34.507 24.2409 34.5105 24.2409C34.5139 24.2409 34.5186 24.2409 34.522 24.2409C34.5255 24.2409 34.5302 24.2409 34.5336 24.2409C34.5371 24.2409 34.5418 24.2409 34.5452 24.2409C34.5487 24.2409 34.5533 24.2409 34.5568 24.2409C34.5603 24.2409 34.5649 24.2409 34.5684 24.2409C34.5719 24.2409 34.5765 24.2409 34.58 24.2409C34.5835 24.2409 34.5881 24.2409 34.5916 24.2409C34.5951 24.2409 34.5997 24.2409 34.6032 24.2409C34.6067 24.2409 34.6113 24.2409 34.6148 24.2409C34.6183 24.2409 34.6229 24.2409 34.6264 24.2409C34.6299 24.2409 34.6345 24.2409 34.638 24.2409C34.6414 24.2409 34.6461 24.2409 34.6496 24.2409C34.653 24.2409 34.6577 24.2409 34.6612 24.2409C36.568 24.2409 38.1132 22.6945 38.1132 20.7888C38.1132 18.8832 36.568 17.3368 34.6612 17.3368Z" fill="#C22828"/>
<path d="M38.1142 20.7888C38.1142 22.6957 36.5679 24.2409 34.6622 24.2409C32.7542 24.2409 31.209 22.6945 31.209 20.7888C31.209 18.8832 32.7553 17.3368 34.6622 17.3368C36.5679 17.3368 38.1142 18.882 38.1142 20.7888Z" fill="#ED332B"/>
<path d="M37.2254 20.7239C37.2254 22.1045 36.1068 23.2231 34.7262 23.2231C33.3457 23.2231 32.2271 22.1045 32.2271 20.7239C32.2271 19.3434 33.3457 18.2248 34.7262 18.2248C36.1068 18.2248 37.2254 19.3445 37.2254 20.7239Z" fill="#92D5E3"/>
<path d="M36.0185 20.746C36.0185 21.4728 35.4296 22.0605 34.704 22.0605C33.9783 22.0605 33.3906 21.4728 33.3906 20.746C33.3906 20.0203 33.9783 19.4326 34.704 19.4326C35.4296 19.4326 36.0185 20.0203 36.0185 20.746Z" fill="white"/>
<path d="M44.9649 17.3368C44.9614 17.3368 44.9567 17.3368 44.9533 17.3368C44.9498 17.3368 44.9452 17.3368 44.9417 17.3368C44.9382 17.3368 44.9336 17.3368 44.9301 17.3368C44.9266 17.3368 44.922 17.3368 44.9185 17.3368C44.915 17.3368 44.9104 17.3368 44.9069 17.3368C44.9034 17.3368 44.8988 17.3368 44.8953 17.3368C44.8918 17.3368 44.8872 17.3368 44.8837 17.3368C44.8802 17.3368 44.8756 17.3368 44.8721 17.3368C44.8686 17.3368 44.864 17.3368 44.8605 17.3368C44.8571 17.3368 44.8524 17.3368 44.8489 17.3368C44.8455 17.3368 44.8408 17.3368 44.8373 17.3368C44.8339 17.3368 44.8292 17.3368 44.8258 17.3368C44.8223 17.3368 44.8176 17.3368 44.8142 17.3368C44.8107 17.3368 44.8061 17.3368 44.8026 17.3368C44.7991 17.3368 44.7945 17.3368 44.791 17.3368C44.7875 17.3368 44.7829 17.3368 44.7794 17.3368C44.7759 17.3368 44.7713 17.3368 44.7678 17.3368C44.7643 17.3368 44.7597 17.3368 44.7562 17.3368C44.7527 17.3368 44.7481 17.3368 44.7446 17.3368C44.7411 17.3368 44.7365 17.3368 44.733 17.3368C44.7295 17.3368 44.7249 17.3368 44.7214 17.3368C44.718 17.3368 44.7133 17.3368 44.7098 17.3368C44.7064 17.3368 44.7017 17.3368 44.6982 17.3368C44.6948 17.3368 44.6901 17.3368 44.6867 17.3368C44.6832 17.3368 44.6785 17.3368 44.6751 17.3368C44.6716 17.3368 44.6669 17.3368 44.6635 17.3368C44.66 17.3368 44.6554 17.3368 44.6519 17.3368C44.6484 17.3368 44.6438 17.3368 44.6403 17.3368C44.6368 17.3368 44.6322 17.3368 44.6287 17.3368C44.6252 17.3368 44.6206 17.3368 44.6171 17.3368C44.6136 17.3368 44.609 17.3368 44.6055 17.3368C44.602 17.3368 44.5974 17.3368 44.5939 17.3368C44.5904 17.3368 44.5858 17.3368 44.5823 17.3368C44.5789 17.3368 44.5742 17.3368 44.5707 17.3368C44.5673 17.3368 44.5626 17.3368 44.5591 17.3368C44.5557 17.3368 44.551 17.3368 44.5476 17.3368C44.5441 17.3368 44.5394 17.3368 44.536 17.3368C44.5325 17.3368 44.5278 17.3368 44.5244 17.3368C44.5209 17.3368 44.5163 17.3368 44.5128 17.3368C44.5093 17.3368 44.5047 17.3368 44.5012 17.3368C44.4977 17.3368 44.4931 17.3368 44.4896 17.3368C44.4861 17.3368 44.4815 17.3368 44.478 17.3368C44.4745 17.3368 44.4699 17.3368 44.4664 17.3368C44.4629 17.3368 44.4583 17.3368 44.4548 17.3368C44.4513 17.3368 44.4467 17.3368 44.4432 17.3368C44.4398 17.3368 44.4351 17.3368 44.4316 17.3368C44.4282 17.3368 44.4235 17.3368 44.42 17.3368C44.4166 17.3368 44.4119 17.3368 44.4085 17.3368C44.405 17.3368 44.4003 17.3368 44.3969 17.3368C44.3934 17.3368 44.3887 17.3368 44.3853 17.3368C44.3818 17.3368 44.3772 17.3368 44.3737 17.3368C44.3702 17.3368 44.3656 17.3368 44.3621 17.3368C44.3586 17.3368 44.354 17.3368 44.3505 17.3368C44.347 17.3368 44.3424 17.3368 44.3389 17.3368C44.3354 17.3368 44.3308 17.3368 44.3273 17.3368C44.3238 17.3368 44.3192 17.3368 44.3157 17.3368C44.3122 17.3368 44.3076 17.3368 44.3041 17.3368C44.3007 17.3368 44.296 17.3368 44.2925 17.3368C44.2891 17.3368 44.2844 17.3368 44.2809 17.3368C44.2775 17.3368 44.2728 17.3368 44.2694 17.3368C44.2659 17.3368 44.2612 17.3368 44.2578 17.3368C44.2543 17.3368 44.2496 17.3368 44.2462 17.3368C42.3382 17.3368 40.793 18.8832 40.793 20.7888C40.793 22.6945 42.3393 24.2409 44.2462 24.2409C44.2496 24.2409 44.2543 24.2409 44.2578 24.2409C44.2612 24.2409 44.2659 24.2409 44.2694 24.2409C44.2728 24.2409 44.2775 24.2409 44.2809 24.2409C44.2844 24.2409 44.2891 24.2409 44.2925 24.2409C44.296 24.2409 44.3007 24.2409 44.3041 24.2409C44.3076 24.2409 44.3122 24.2409 44.3157 24.2409C44.3192 24.2409 44.3238 24.2409 44.3273 24.2409C44.3308 24.2409 44.3354 24.2409 44.3389 24.2409C44.3424 24.2409 44.347 24.2409 44.3505 24.2409C44.354 24.2409 44.3586 24.2409 44.3621 24.2409C44.3656 24.2409 44.3702 24.2409 44.3737 24.2409C44.3772 24.2409 44.3818 24.2409 44.3853 24.2409C44.3887 24.2409 44.3934 24.2409 44.3969 24.2409C44.4003 24.2409 44.405 24.2409 44.4085 24.2409C44.4119 24.2409 44.4166 24.2409 44.42 24.2409C44.4235 24.2409 44.4282 24.2409 44.4316 24.2409C44.4351 24.2409 44.4398 24.2409 44.4432 24.2409C44.4467 24.2409 44.4513 24.2409 44.4548 24.2409C44.4583 24.2409 44.4629 24.2409 44.4664 24.2409C44.4699 24.2409 44.4745 24.2409 44.478 24.2409C44.4815 24.2409 44.4861 24.2409 44.4896 24.2409C44.4931 24.2409 44.4977 24.2409 44.5012 24.2409C44.5047 24.2409 44.5093 24.2409 44.5128 24.2409C44.5163 24.2409 44.5209 24.2409 44.5244 24.2409C44.5278 24.2409 44.5325 24.2409 44.536 24.2409C44.5394 24.2409 44.5441 24.2409 44.5476 24.2409C44.551 24.2409 44.5557 24.2409 44.5591 24.2409C44.5626 24.2409 44.5673 24.2409 44.5707 24.2409C44.5742 24.2409 44.5789 24.2409 44.5823 24.2409C44.5858 24.2409 44.5904 24.2409 44.5939 24.2409C44.5974 24.2409 44.602 24.2409 44.6055 24.2409C44.609 24.2409 44.6136 24.2409 44.6171 24.2409C44.6206 24.2409 44.6252 24.2409 44.6287 24.2409C44.6322 24.2409 44.6368 24.2409 44.6403 24.2409C44.6438 24.2409 44.6484 24.2409 44.6519 24.2409C44.6554 24.2409 44.66 24.2409 44.6635 24.2409C44.6669 24.2409 44.6716 24.2409 44.6751 24.2409C44.6785 24.2409 44.6832 24.2409 44.6867 24.2409C44.6901 24.2409 44.6948 24.2409 44.6982 24.2409C44.7017 24.2409 44.7064 24.2409 44.7098 24.2409C44.7133 24.2409 44.718 24.2409 44.7214 24.2409C44.7249 24.2409 44.7295 24.2409 44.733 24.2409C44.7365 24.2409 44.7411 24.2409 44.7446 24.2409C44.7481 24.2409 44.7527 24.2409 44.7562 24.2409C44.7597 24.2409 44.7643 24.2409 44.7678 24.2409C44.7713 24.2409 44.7759 24.2409 44.7794 24.2409C44.7829 24.2409 44.7875 24.2409 44.791 24.2409C44.7945 24.2409 44.7991 24.2409 44.8026 24.2409C44.8061 24.2409 44.8107 24.2409 44.8142 24.2409C44.8176 24.2409 44.8223 24.2409 44.8258 24.2409C44.8292 24.2409 44.8339 24.2409 44.8373 24.2409C44.8408 24.2409 44.8455 24.2409 44.8489 24.2409C44.8524 24.2409 44.8571 24.2409 44.8605 24.2409C44.864 24.2409 44.8686 24.2409 44.8721 24.2409C44.8756 24.2409 44.8802 24.2409 44.8837 24.2409C44.8872 24.2409 44.8918 24.2409 44.8953 24.2409C44.8988 24.2409 44.9034 24.2409 44.9069 24.2409C44.9104 24.2409 44.915 24.2409 44.9185 24.2409C44.922 24.2409 44.9266 24.2409 44.9301 24.2409C44.9336 24.2409 44.9382 24.2409 44.9417 24.2409C44.9452 24.2409 44.9498 24.2409 44.9533 24.2409C44.9567 24.2409 44.9614 24.2409 44.9649 24.2409C46.8717 24.2409 48.4169 22.6945 48.4169 20.7888C48.4169 18.8832 46.8717 17.3368 44.9649 17.3368Z" fill="#C22828"/>
<path d="M48.417 20.7888C48.417 22.6957 46.8706 24.2409 44.9649 24.2409C43.0569 24.2409 41.5117 22.6945 41.5117 20.7888C41.5117 18.8832 43.0581 17.3368 44.9649 17.3368C46.8718 17.3368 48.417 18.882 48.417 20.7888Z" fill="#ED332B"/>
<path d="M47.5291 20.7239C47.5291 22.1045 46.4105 23.2231 45.03 23.2231C43.6494 23.2231 42.5308 22.1045 42.5308 20.7239C42.5308 19.3434 43.6494 18.2248 45.03 18.2248C46.4105 18.2248 47.5291 19.3445 47.5291 20.7239Z" fill="#92D5E3"/>
<path d="M46.3222 20.746C46.3222 21.4728 45.7333 22.0605 45.0077 22.0605C44.282 22.0605 43.6943 21.4728 43.6943 20.746C43.6943 20.0203 44.282 19.4326 45.0077 19.4326C45.7333 19.4326 46.3222 20.0203 46.3222 20.746Z" fill="white"/>
<path d="M45.3568 27.366C44.0527 26.1535 43.13 27.6396 42.0369 28.247C40.13 29.3332 37.5833 28.9321 36.0648 27.3591C34.661 25.9738 32.5386 28.1021 33.9354 29.5012C35.047 30.6036 36.467 31.3907 38.0018 31.7118C39.5446 32.0341 41.1733 31.8892 42.6362 31.3003C44.0446 30.6685 46.8788 29.1686 45.3568 27.366Z" fill="#ED332B"/>
<path d="M35.0168 28.9622C34.9195 28.8753 34.8209 28.7826 34.7271 28.6898L35.2591 28.1543C35.3437 28.2389 35.4318 28.3212 35.5188 28.3989L35.0168 28.9622Z" fill="white"/>
<path d="M39.4331 30.737C39.1642 30.7288 38.893 30.7045 38.6264 30.6651L38.7376 29.9186C38.9741 29.9533 39.2164 29.9754 39.4552 29.9823L39.4331 30.737ZM39.8389 30.737L39.8168 29.9823C40.0556 29.9754 40.2979 29.9533 40.5344 29.9186L40.6457 30.6651C40.379 30.7045 40.1078 30.7288 39.8389 30.737ZM38.2276 30.5944C37.9645 30.5387 37.7013 30.4669 37.4463 30.3811L37.6874 29.6659C37.9146 29.7424 38.1488 29.8061 38.3829 29.856L38.2276 30.5944ZM41.0444 30.5932L40.8891 29.8537C41.1232 29.805 41.3574 29.7401 41.5846 29.6636L41.8257 30.3788C41.5695 30.4669 41.3075 30.5387 41.0444 30.5932ZM37.0661 30.2408C36.8169 30.14 36.5711 30.0241 36.3347 29.8942L36.6975 29.2312C36.9085 29.3459 37.1275 29.4503 37.3489 29.5395L37.0661 30.2408ZM42.2047 30.2397L41.9219 29.5395C42.1433 29.4503 42.3624 29.3459 42.5734 29.2312L42.9362 29.8942C42.6997 30.0229 42.454 30.14 42.2047 30.2397ZM43.2851 29.6891L42.8852 29.048C43.088 28.9217 43.2863 28.7814 43.474 28.6307L43.9447 29.2219C43.7337 29.3911 43.5111 29.5476 43.2851 29.6891ZM35.9857 29.6891C35.7585 29.5476 35.536 29.39 35.3262 29.2219L35.7968 28.6307C35.9857 28.7803 36.184 28.9217 36.3868 29.048L35.9857 29.6891Z" fill="white"/>
<path d="M44.2546 28.9622L43.7515 28.3989C43.8396 28.3201 43.9277 28.2378 44.0111 28.1543L44.5432 28.6898C44.4505 28.7826 44.3531 28.8741 44.2546 28.9622Z" fill="white"/>
</svg>
